<?xml version="1.0" encoding="UTF-8" standalone="no"?><!DOCTYPE svg PUBLIC "-//W3C//DTD SVG 1.1//EN" "http://www.w3.org/Graphics/SVG/1.1/DTD/svg11.dtd"><svg width="100%" height="100%" viewBox="0 0 155 155" version="1.1" xmlns="http://www.w3.org/2000/svg" xmlns:xlink="http://www.w3.org/1999/xlink" xml:space="preserve" xmlns:serif="http://www.serif.com/" style="fill-rule:evenodd;clip-rule:evenodd;stroke-linejoin:round;stroke-miterlimit:2;"><path d="M154.396,77.2c-0,42.633 -34.563,77.2 -77.196,77.2c-42.638,-0 -77.2,-34.567 -77.2,-77.2c-0,-42.633 34.562,-77.2 77.2,-77.2c42.633,-0 77.196,34.567 77.196,77.2" style="fill:#fff;fill-rule:nonzero;"/><path d="M43.333,111.694l15.829,-0l0,-47.617l-15.829,0l0,47.617Zm8.017,-70.571c-5.417,0 -8.958,3.554 -8.958,8.225c-0,4.575 3.441,8.233 8.75,8.233l0.108,0c5.521,0 8.954,-3.658 8.954,-8.233c-0.104,-4.671 -3.433,-8.225 -8.854,-8.225m64.896,43.271l-0,27.3l-15.829,-0l-0,-25.471c-0,-6.404 -2.292,-10.771 -8.021,-10.771c-4.375,0 -6.975,2.946 -8.121,5.792c-0.417,1.017 -0.525,2.433 -0.525,3.858l-0,26.592l-15.833,-0c-0,-0 0.212,-43.146 -0,-47.617l15.829,0l-0,6.75c-0.029,0.05 -0.071,0.104 -0.104,0.154l0.104,0l-0,-0.154c2.104,-3.241 5.862,-7.866 14.271,-7.866c10.416,-0 18.229,6.804 18.229,21.433" style="fill:#333;fill-rule:nonzero;"/></svg>