<?xml version="1.0" standalone="no"?>
<!DOCTYPE svg PUBLIC "-//W3C//DTD SVG 20010904//EN"
 "http://www.w3.org/TR/2001/REC-SVG-20010904/DTD/svg10.dtd">
<svg version="1.0" xmlns="http://www.w3.org/2000/svg"
 width="1920.000000pt" height="1080.000000pt" viewBox="0 0 1920.000000 1080.000000"
 preserveAspectRatio="xMidYMid meet">

<g transform="translate(0.000000,1080.000000) scale(0.100000,-0.100000)"
fill="#000000" stroke="none">
<path d="M3121 10774 c-11 -14 -23 -40 -26 -58 -3 -17 -7 -886 -8 -1931 l-2
-1900 23 -50 c48 -103 114 -146 237 -153 78 -4 81 -3 106 25 52 56 53 65 56
548 4 755 25 2129 32 2143 8 14 116 -334 286 -928 114 -396 313 -1056 420
-1395 105 -331 217 -507 341 -535 38 -9 130 2 161 18 31 17 61 55 84 106 30
69 33 174 20 666 -6 228 -18 672 -26 985 -25 958 -49 1531 -85 2005 -21 270
-47 391 -96 450 l-26 30 -199 0 c-182 0 -199 -1 -200 -17 -4 -60 5 -176 22
-293 49 -337 88 -922 113 -1700 9 -256 18 -514 21 -574 3 -61 3 -108 0 -105
-3 3 -82 257 -176 565 -390 1279 -478 1541 -597 1781 -22 43 -42 98 -46 123
-22 139 -140 220 -320 220 -90 0 -96 -1 -115 -26z"/>
<path d="M7040 10788 c0 -7 9 -33 20 -57 75 -164 108 -495 117 -1151 10 -750
-33 -1230 -157 -1765 -19 -85 -99 -377 -105 -383 -8 -9 -110 345 -225 778
-163 614 -281 1101 -430 1771 -44 198 -86 374 -93 392 -21 49 -88 104 -149
121 -130 36 -228 28 -250 -20 -19 -41 5 -227 56 -432 25 -100 68 -289 97 -420
335 -1553 643 -2738 786 -3031 61 -124 119 -152 312 -153 137 -1 180 12 201
61 15 38 8 70 -51 208 -21 51 -39 99 -39 107 0 8 9 36 21 63 79 181 200 546
263 793 94 369 167 857 195 1305 42 668 7 1604 -68 1798 l-11 27 -245 0 c-189
0 -245 -3 -245 -12z"/>
<path d="M10095 10784 c-33 -8 -96 -26 -140 -40 -171 -54 -420 -98 -855 -149
-418 -49 -534 -83 -596 -176 -57 -86 -52 -158 13 -186 32 -13 65 -15 208 -10
94 4 211 10 261 13 l91 7 7 -764 c3 -420 13 -1081 21 -1469 8 -388 15 -787 15
-886 l0 -181 -107 -12 c-192 -21 -290 -57 -355 -129 -61 -68 -71 -182 -19
-223 24 -20 34 -21 146 -16 66 4 197 17 292 31 l171 24 62 -19 c142 -44 259
-32 283 30 12 32 -21 26 327 56 102 9 213 20 248 25 114 16 195 85 227 193 29
99 16 155 -46 182 -55 25 -266 16 -537 -25 -118 -17 -215 -30 -217 -28 -11 12
-28 556 -55 1723 -13 567 -27 955 -45 1230 -8 121 -15 236 -15 256 l0 36 98
12 c340 43 655 108 724 149 41 24 70 92 76 177 5 85 -9 136 -45 165 -21 16
-40 20 -102 19 -42 0 -103 -7 -136 -15z"/>
<path d="M11423 10772 c-35 -36 -43 -66 -43 -167 l0 -73 -49 -36 c-83 -62
-129 -142 -115 -202 18 -75 85 -161 134 -170 l25 -6 0 -881 c1 -1076 17 -1542
71 -2057 14 -139 46 -393 60 -477 9 -55 43 -113 82 -140 70 -47 291 -70 367
-39 56 24 58 65 12 286 -58 280 -89 571 -126 1185 -5 77 -7 143 -4 148 8 13
19 0 94 -106 207 -291 922 -1248 1066 -1427 91 -113 142 -141 264 -141 160 -1
289 53 289 121 0 32 -80 151 -166 247 -243 273 -1192 1482 -1179 1503 3 5 40
33 83 63 436 307 755 759 827 1174 48 275 -18 579 -178 818 -59 89 -191 212
-288 269 -161 96 -312 132 -519 123 -130 -5 -228 -22 -343 -59 l-67 -22 -28
27 c-38 37 -94 57 -171 64 -65 5 -68 4 -98 -25z m926 -358 c87 -43 186 -137
240 -228 46 -77 87 -195 102 -294 38 -247 -83 -572 -317 -853 -168 -202 -470
-440 -537 -424 l-24 7 -7 626 c-3 345 -9 736 -12 869 l-6 242 58 26 c124 55
226 76 344 70 73 -4 95 -10 159 -41z"/>
<path d="M17228 10790 c-9 -6 -24 -32 -32 -58 -15 -43 -16 -235 -14 -1957 l3
-1910 21 -40 c50 -93 137 -145 245 -145 51 0 72 5 92 20 55 44 54 23 67 1225
7 611 16 1200 19 1309 l6 199 69 -224 c37 -123 137 -462 221 -754 85 -291 190
-645 233 -785 44 -140 103 -335 132 -433 95 -327 177 -515 273 -622 61 -69
120 -90 210 -75 84 13 137 61 163 147 17 56 19 462 4 928 -5 171 -17 580 -25
910 -18 698 -28 955 -55 1415 -33 554 -51 705 -96 793 -35 69 -26 67 -252 67
l-205 0 6 -102 c4 -57 16 -163 27 -236 27 -177 66 -647 85 -1012 18 -365 48
-1241 43 -1293 -3 -33 -10 -16 -50 115 -500 1644 -574 1873 -704 2149 -35 74
-64 146 -64 160 -1 71 -86 169 -176 202 -54 19 -217 24 -246 7z"/>
<path d="M15015 10740 c-38 -10 -84 -24 -102 -31 -29 -12 -35 -11 -55 8 -36
32 -63 36 -110 15 -58 -25 -99 -62 -166 -146 -173 -216 -303 -525 -377 -894
-158 -787 -50 -2057 229 -2686 42 -95 131 -219 206 -289 78 -72 194 -138 286
-162 77 -20 248 -20 328 1 449 115 717 673 808 1684 20 226 17 962 -5 1160
-67 596 -212 979 -452 1190 -111 96 -212 141 -365 160 -111 13 -142 12 -225
-10z m208 -366 c136 -46 258 -307 322 -687 131 -788 95 -1756 -87 -2317 -99
-307 -290 -523 -427 -482 -95 29 -206 209 -275 449 -136 473 -234 1413 -197
1893 22 278 66 529 92 521 39 -11 119 -12 138 -2 28 16 47 54 126 266 79 213
125 304 172 345 39 34 68 37 136 14z"/>
<path d="M605 10629 c-211 -31 -321 -130 -362 -326 -29 -136 -20 -761 27
-1798 6 -121 19 -429 30 -685 28 -662 44 -793 115 -936 66 -136 209 -239 395
-285 75 -19 103 -21 231 -16 293 12 483 77 804 276 180 112 233 150 303 216
86 80 99 123 65 220 -24 66 -113 159 -167 174 -58 15 -90 4 -163 -60 -284
-246 -441 -346 -668 -426 -70 -24 -95 -28 -197 -28 -116 0 -117 0 -149 30 -17
17 -38 44 -45 62 -16 37 -39 186 -54 353 -26 285 -69 1115 -58 1125 3 3 144
10 314 15 170 6 338 15 374 21 147 23 201 83 207 232 4 69 1 87 -16 114 -34
54 -58 54 -451 3 -176 -23 -443 -50 -449 -45 -1 2 -12 174 -23 382 -24 467
-29 971 -10 1025 l13 37 477 3 c449 4 481 6 546 25 74 23 137 62 170 106 16
21 21 43 21 89 0 60 -1 62 -35 82 -34 21 -48 21 -610 23 -316 0 -602 -3 -635
-8z"/>
<path d="M12030 5127 c-49 -25 -50 -30 -50 -533 0 -489 -8 -825 -20 -844 -4
-7 -49 -14 -106 -17 -54 -2 -114 -9 -131 -15 -60 -18 -91 -86 -62 -140 19 -35
70 -48 193 -48 110 0 115 -1 122 -22 12 -34 9 -428 -6 -778 -15 -358 -9 -1351
9 -1500 22 -179 73 -322 147 -408 68 -80 203 -124 310 -102 149 31 304 161
304 255 0 15 -15 41 -36 65 -29 32 -43 40 -71 40 -45 0 -67 -12 -135 -76 -47
-45 -62 -54 -94 -54 -57 0 -99 32 -134 103 -74 151 -83 336 -78 1535 3 820 5
924 19 938 12 12 51 17 175 22 173 8 215 21 241 73 20 39 16 93 -8 115 -20 18
-36 19 -219 16 -156 -2 -199 0 -203 10 -5 15 8 442 23 742 5 109 10 268 10
353 0 190 -11 220 -93 259 -59 27 -72 29 -107 11z"/>
<path d="M13890 5092 c-40 -7 -77 -39 -95 -84 -26 -67 -37 -856 -27 -2042 5
-545 6 -1076 4 -1181 -4 -184 12 -792 25 -925 5 -58 10 -69 42 -102 70 -69
185 -59 218 19 14 35 15 111 3 852 -13 803 -9 1281 10 1415 12 80 35 117 99
158 259 164 583 15 666 -307 22 -87 26 -206 34 -1180 8 -959 6 -926 65 -972
40 -32 89 -37 140 -14 51 22 73 57 86 134 10 59 -15 1603 -30 1852 -11 187
-35 294 -91 412 -91 191 -250 314 -480 374 -115 30 -230 23 -351 -20 -127 -45
-137 -42 -154 34 -5 22 -9 369 -9 770 0 679 -1 733 -17 758 -27 40 -80 59
-138 49z"/>
<path d="M8153 3580 c-21 -8 -23 -16 -23 -75 0 -80 -11 -83 -90 -23 -101 76
-125 83 -300 83 -173 0 -230 -12 -316 -67 -204 -128 -323 -333 -363 -622 -32
-231 -38 -980 -11 -1283 35 -378 148 -657 312 -768 29 -19 89 -47 133 -62 70
-23 97 -26 210 -26 148 0 252 19 359 64 37 16 76 29 85 29 9 0 41 -20 71 -45
68 -56 141 -80 214 -70 71 9 112 31 127 67 11 27 10 36 -11 75 -29 54 -49 66
-108 61 l-47 -3 -5 40 c-3 22 -2 213 1 425 14 856 4 1628 -27 2091 l-7 97 -61
6 c-33 4 -74 9 -91 11 -16 2 -40 0 -52 -5z m-269 -268 c132 -62 188 -142 225
-327 41 -207 46 -316 45 -1035 -1 -740 -6 -834 -45 -877 -62 -66 -177 -97
-364 -97 -122 -1 -146 2 -186 20 -99 46 -152 122 -190 274 -98 396 -119 1396
-35 1679 47 158 146 312 231 359 65 36 90 42 172 38 65 -3 95 -10 147 -34z"/>
<path d="M5297 3555 c-226 -43 -344 -125 -428 -300 -46 -95 -74 -199 -88 -327
-18 -166 -33 -754 -28 -1143 4 -362 5 -385 30 -495 45 -202 107 -324 216 -421
210 -188 580 -208 842 -47 105 65 123 118 68 202 -34 50 -72 76 -115 76 -14 0
-83 -26 -153 -57 l-126 -58 -105 0 c-99 0 -109 2 -166 32 -100 52 -142 118
-179 277 -32 138 -65 506 -65 727 l0 97 124 -5 c276 -12 545 54 668 165 84 75
135 196 164 382 18 124 18 345 -1 434 -32 153 -146 331 -257 402 -95 61 -260
85 -401 59z m220 -237 c66 -31 139 -117 162 -192 41 -134 53 -334 26 -458 -51
-241 -196 -328 -555 -332 l-145 -1 -3 65 c-5 99 17 501 32 589 22 126 88 227
192 296 101 67 197 78 291 33z"/>
<path d="M9663 3511 c-23 -11 -44 -29 -48 -41 -4 -12 -5 -139 -3 -283 1 -144
2 -730 0 -1302 -1 -685 1 -1052 8 -1076 31 -110 146 -151 219 -78 48 48 52 85
36 392 -27 532 -38 1055 -26 1292 17 337 58 576 119 688 68 126 226 207 401
207 106 0 146 -11 208 -55 77 -55 119 -75 162 -75 81 0 131 37 131 97 0 74
-152 188 -305 229 -83 22 -256 29 -340 15 -109 -19 -231 -82 -327 -169 -21
-19 -41 -32 -45 -29 -3 4 -6 43 -7 88 -2 72 -5 84 -25 100 -30 25 -103 24
-158 0z"/>
<path d="M3425 1152 c-99 -47 -155 -220 -106 -328 38 -84 147 -131 278 -121
92 7 145 35 181 97 23 39 27 56 27 126 0 72 -3 86 -30 129 -16 26 -47 62 -68
79 -36 29 -43 31 -140 34 -83 2 -109 -1 -142 -16z"/>
</g>
</svg>
