<?xml version="1.0" standalone="no"?>
<!DOCTYPE svg PUBLIC "-//W3C//DTD SVG 20010904//EN"
 "http://www.w3.org/TR/2001/REC-SVG-20010904/DTD/svg10.dtd">
<svg version="1.0" xmlns="http://www.w3.org/2000/svg"
 width="1125.000000pt" height="1125.000000pt" viewBox="0 0 1125.000000 1125.000000"
 preserveAspectRatio="xMidYMid meet">

<g transform="translate(0.000000,1125.000000) scale(0.100000,-0.100000)"
fill="#000000" stroke="none">
<path d="M9509 10548 c-26 -36 -32 -119 -11 -153 11 -17 12 -14 6 23 -7 48 13
113 27 90 12 -18 11 -71 -1 -102 -13 -36 6 -33 25 4 19 37 19 90 1 135 -8 19
-17 35 -20 35 -2 0 -15 -14 -27 -32z"/>
<path d="M8724 10545 c-9 -37 2 -95 24 -124 28 -37 49 -39 23 -2 -15 20 -21
42 -19 63 l3 33 23 -35 c12 -19 22 -48 22 -65 0 -23 3 -27 10 -15 26 40 -3
120 -55 154 -24 16 -25 15 -31 -9z"/>
<path d="M10114 10505 c-3 -19 -4 -42 0 -50 4 -12 0 -14 -20 -9 -23 6 -25 5
-18 -22 11 -46 36 -83 66 -97 16 -6 27 -14 25 -17 -2 -3 -11 -22 -21 -44 l-17
-38 -28 43 c-15 24 -36 51 -45 59 -17 14 -18 10 -15 -68 4 -70 2 -81 -11 -76
-60 25 -63 13 -19 -64 21 -37 46 -63 84 -87 44 -29 52 -38 48 -57 -11 -51 -13
-52 -38 -17 -27 36 -53 55 -62 45 -3 -3 -16 17 -29 44 -21 45 -90 110 -117
110 -13 0 -1 -74 18 -110 l14 -27 -41 14 c-22 7 -43 12 -45 9 -9 -8 66 -123
112 -173 l44 -48 1 32 c0 43 17 86 31 77 7 -4 8 -21 5 -43 -4 -20 -6 -61 -6
-91 0 -58 -2 -58 -37 -3 -10 16 -13 16 -23 3 -5 -8 -15 -34 -21 -58 l-12 -43
-17 38 c-10 21 -25 47 -33 58 -15 19 -15 18 -22 -18 -13 -65 -1 -168 24 -220
31 -64 38 -53 12 18 -22 58 -28 135 -11 135 11 0 30 -66 40 -140 7 -55 13 -50
23 20 l3 25 8 -27 c6 -22 0 -38 -38 -93 -25 -37 -46 -72 -46 -78 0 -6 -7 -4
-16 5 -15 14 -15 21 -4 47 14 36 9 126 -9 144 -16 16 -47 -24 -62 -80 -6 -24
-14 -43 -17 -43 -3 0 -37 18 -75 41 -113 67 -126 111 -82 274 21 79 24 85 26
50 l1 -40 11 43 c11 41 52 100 62 90 8 -8 -24 -90 -42 -110 -22 -24 -12 -31
16 -11 31 21 60 89 61 138 0 22 7 58 15 80 16 44 19 133 6 153 -6 9 -14 3 -32
-22 -27 -41 -39 -45 -39 -15 0 11 -12 45 -26 76 -24 49 -28 54 -38 37 -6 -11
-11 -58 -11 -106 l0 -87 -26 25 c-14 13 -28 24 -32 24 -4 0 -7 -26 -7 -57 0
-57 26 -133 49 -147 16 -10 13 -27 -7 -54 l-18 -23 -2 37 c-2 20 -7 46 -13 56
-10 18 -12 19 -29 3 -17 -15 -18 -14 -26 27 -4 24 -8 54 -10 68 -1 14 -5 46
-9 72 -4 25 -4 68 0 95 8 47 8 47 17 18 5 -16 9 -66 9 -110 1 -78 1 -79 16
-51 22 42 14 177 -14 231 l-21 40 -11 -28 c-6 -15 -14 -39 -17 -53 -7 -26 -7
-26 -26 -6 -17 17 -18 23 -8 42 18 33 7 112 -20 150 l-23 32 -15 -27 c-8 -15
-16 -65 -18 -113 -5 -101 13 -151 74 -211 32 -32 40 -48 46 -91 7 -54 1 -75
-13 -51 -7 11 -11 9 -20 -7 -11 -21 -13 -21 -72 23 -34 25 -65 45 -70 45 -4 0
-2 -21 6 -46 12 -40 12 -45 -2 -40 -8 3 -26 9 -39 12 -23 6 -23 5 -13 -27 6
-19 25 -51 41 -71 l29 -38 -33 0 -33 -1 39 -34 c21 -19 77 -60 125 -91 47 -31
106 -77 131 -103 25 -25 71 -68 103 -94 l57 -48 -26 -45 c-23 -39 -26 -53 -21
-100 3 -33 2 -54 -4 -54 -17 0 -200 100 -251 137 -40 29 -46 38 -38 53 16 30
12 70 -11 106 -19 32 -49 46 -49 24 0 -6 -17 6 -37 26 -33 34 -37 35 -44 18
-13 -33 -10 -89 7 -112 15 -21 14 -22 -15 -22 -17 0 -31 -3 -31 -7 0 -20 43
-75 72 -93 18 -11 30 -20 25 -20 -4 0 0 -11 9 -25 16 -25 106 -75 135 -75 15
0 15 -3 -3 -37 -13 -27 -18 -51 -15 -81 4 -38 2 -43 -20 -48 -34 -9 -57 10
-195 161 -101 110 -118 133 -118 161 0 33 33 130 87 254 24 56 28 80 30 175 1
61 5 136 9 167 5 49 2 66 -20 113 -14 31 -30 54 -36 50 -5 -3 -14 -24 -20 -47
l-11 -40 -28 26 c-35 34 -41 33 -41 -6 l0 -33 -20 25 -20 25 -19 -22 c-10 -12
-21 -20 -23 -17 -3 2 -3 37 0 77 4 61 1 80 -17 114 -11 23 -25 44 -30 48 -17
10 -33 -36 -33 -96 0 -60 -5 -68 -27 -46 -10 10 -16 8 -31 -10 -10 -13 -20
-23 -23 -23 -2 0 -7 17 -9 38 -3 20 -13 55 -23 77 -10 22 -19 47 -20 55 -1 8
-2 22 -3 31 -5 40 -146 138 -168 116 -13 -13 45 -104 87 -136 24 -18 44 -40
43 -47 0 -8 -2 -40 -3 -71 -1 -42 -4 -53 -11 -42 -5 9 -26 29 -46 44 l-37 28
6 -55 c3 -31 15 -74 26 -96 24 -48 26 -87 6 -122 -8 -14 -15 -38 -15 -55 -1
-30 -1 -30 -15 8 -17 46 -62 109 -98 138 l-27 20 0 -48 c0 -57 35 -135 80
-178 24 -23 32 -26 45 -15 12 10 15 10 15 -2 0 -8 6 -23 14 -33 12 -16 13 -13
8 33 -5 58 3 102 20 102 7 0 9 -24 6 -76 l-5 -75 18 28 c11 15 19 36 19 46 0
9 4 17 8 17 21 0 32 -29 32 -82 0 -32 7 -75 16 -96 9 -20 22 -55 30 -77 l15
-40 -52 50 c-28 28 -74 82 -101 120 -53 74 -56 56 -5 -35 19 -34 81 -105 167
-190 75 -74 179 -190 231 -258 52 -68 102 -133 112 -146 16 -19 16 -25 4 -61
l-14 -40 -17 33 c-20 39 -29 40 -45 6 -23 -52 -24 -106 -2 -172 l21 -62 -25
-41 c-15 -22 -29 -49 -33 -59 -6 -15 -21 -2 -89 76 -46 51 -83 101 -83 109 0
21 -35 88 -54 104 -8 7 -20 10 -27 6 -14 -10 -118 92 -173 170 -59 83 -65 95
-29 59 18 -17 42 -34 55 -37 20 -5 19 -3 -9 21 -32 26 -61 82 -44 82 12 0 71
-68 71 -81 0 -6 4 -8 9 -5 5 3 11 -7 14 -22 8 -35 43 -92 58 -92 6 0 1 16 -11
35 -13 22 -20 47 -18 67 l3 33 21 -40 c12 -22 24 -57 28 -77 9 -51 31 -64 23
-14 -6 38 8 96 24 96 12 0 11 -82 -1 -117 l-10 -28 25 28 c20 22 25 39 25 78
0 28 -6 62 -14 77 -12 24 -12 30 0 47 8 11 14 42 14 74 0 58 -11 88 -28 77 -5
-3 -17 15 -27 39 -9 25 -21 45 -26 45 -14 0 -49 -62 -49 -88 l0 -22 -40 26
c-38 25 -40 30 -40 75 0 51 -8 60 -30 34 -18 -21 -30 -19 -30 8 -1 12 -6 35
-13 51 l-13 29 -15 -24 c-25 -39 -39 -88 -39 -139 0 -49 16 -110 30 -110 7 0
32 -81 26 -87 -6 -7 -96 176 -96 196 0 12 -7 38 -16 59 -28 65 -65 206 -66
245 0 27 6 46 21 60 l21 21 0 -24 c-1 -14 -7 -43 -15 -65 -18 -50 -18 -50 0
-35 13 11 15 7 15 -26 1 -22 7 -50 16 -64 14 -25 14 -24 8 12 -7 41 1 88 15
88 13 0 19 -60 10 -92 -4 -16 -4 -28 1 -28 17 0 33 44 32 87 0 43 -29 106 -44
97 -4 -3 -8 8 -8 25 0 16 -5 42 -10 57 l-11 27 -24 -23 c-13 -12 -29 -36 -36
-52 -12 -30 -13 -30 -21 -8 -6 18 -4 26 12 37 47 33 68 122 50 210 -12 54 -13
56 -27 38 -9 -11 -25 -42 -37 -69 l-23 -49 -22 36 c-28 46 -94 104 -99 88 -3
-8 -12 -5 -27 9 l-23 22 19 41 c10 23 19 51 19 62 0 25 -17 85 -30 105 -8 13
-12 12 -25 -7 l-16 -22 -46 29 c-26 17 -51 30 -56 30 -12 0 0 -66 19 -101 7
-15 25 -36 40 -48 22 -17 26 -29 28 -78 1 -32 10 -75 20 -95 20 -42 92 -112
106 -103 5 3 14 -3 19 -14 10 -19 9 -18 -39 2 -27 11 -52 18 -56 15 -3 -4 7
-30 22 -59 29 -52 99 -115 140 -125 29 -7 40 -67 36 -190 l-2 -51 -57 29 c-31
15 -58 26 -60 24 -9 -8 38 -101 65 -129 34 -36 89 -70 104 -65 6 2 -5 14 -25
27 -39 24 -87 79 -87 100 0 19 59 -30 98 -83 49 -65 171 -249 172 -258 0 -4
-19 4 -42 18 -24 13 -61 29 -83 35 -140 37 -149 42 -209 98 -32 31 -67 69 -76
84 -18 28 -17 30 12 76 19 32 31 67 35 104 6 55 6 56 27 42 11 -8 32 -15 46
-14 24 1 24 1 -7 15 -28 12 -53 40 -53 58 0 14 22 4 55 -25 27 -24 35 -27 35
-14 0 29 -55 75 -90 75 -28 0 -31 -3 -29 -28 2 -18 -4 -35 -19 -50 l-22 -22 0
66 c0 61 1 65 20 59 31 -10 24 0 -21 29 -27 18 -48 43 -61 73 -11 24 -18 47
-15 49 2 2 30 -27 63 -65 63 -74 82 -78 41 -8 -29 47 -133 154 -143 145 -14
-14 11 -103 41 -148 l32 -47 -19 -38 -19 -37 -31 48 c-36 58 -48 48 -48 -41 0
-59 25 -135 49 -149 15 -9 14 -1 -3 32 -18 36 -25 83 -17 106 6 16 9 14 21
-14 8 -19 14 -57 15 -85 1 -28 5 -57 9 -64 16 -25 -4 -23 -39 3 -28 21 -35 34
-35 60 0 43 -24 111 -56 160 -14 21 -32 59 -40 85 -7 25 -25 61 -38 80 l-25
34 -11 -27 c-5 -15 -10 -41 -10 -57 l0 -31 -37 30 c-37 29 -76 52 -87 52 -12
0 -5 -27 23 -83 l28 -57 -50 6 -50 7 32 -47 c36 -52 110 -96 163 -96 27 0 38
-8 63 -43 16 -23 40 -62 51 -87 12 -25 38 -61 59 -80 20 -19 45 -46 55 -60
l18 -25 -64 1 c-56 0 -68 4 -94 29 -32 30 -60 83 -60 111 0 16 1 16 20 -1 11
-10 31 -41 45 -69 24 -50 24 -51 25 -18 0 44 -31 102 -75 140 -44 39 -55 40
-55 4 0 -26 -3 -28 -31 -24 -18 3 -34 0 -38 -7 -6 -9 -24 -9 -71 -2 -35 6 -66
8 -69 6 -2 -3 11 -21 30 -41 47 -48 148 -96 215 -102 60 -5 69 -12 60 -46 -6
-23 -6 -23 -50 -8 -25 9 -48 14 -51 10 -4 -3 2 -27 14 -52 15 -35 33 -54 70
-78 28 -17 51 -32 51 -34 0 -2 -21 6 -46 17 -25 12 -48 18 -51 16 -12 -12 55
-112 96 -143 24 -19 47 -34 51 -34 4 0 11 -12 15 -27 10 -44 44 -93 109 -161
44 -46 54 -61 36 -54 -14 6 -77 26 -140 44 -63 18 -106 34 -95 36 36 7 40 21
14 48 -13 14 -43 37 -66 51 -24 14 -43 30 -43 36 0 5 9 2 20 -8 30 -27 34 -12
6 22 -27 33 -46 74 -46 101 0 13 5 12 21 -8 34 -43 61 -102 55 -123 -4 -18 -3
-19 10 -5 20 19 5 87 -29 134 -24 34 -87 87 -94 80 -3 -2 0 -27 5 -55 10 -55
8 -58 -22 -36 -35 26 -49 19 -44 -22 3 -21 8 -46 12 -55 6 -13 4 -18 -8 -18
-9 0 -18 11 -21 28 -3 15 -14 44 -25 65 -10 20 -14 34 -8 31 6 -4 9 -3 6 2 -2
5 -16 35 -32 66 -17 36 -26 70 -24 90 3 32 3 32 29 -22 15 -30 30 -73 35 -95
l9 -40 3 52 c2 36 -3 66 -16 95 -21 48 -68 108 -84 108 -19 0 -3 -131 22 -180
l22 -45 -25 24 c-16 14 -28 39 -33 65 -3 22 -14 57 -24 76 -19 38 -57 77 -66
68 -3 -3 -5 -34 -5 -68 -1 -60 -1 -61 -20 -44 -14 13 -19 31 -19 73 0 39 -7
68 -23 95 -32 56 -42 50 -62 -37 l-6 -29 -18 24 c-10 12 -37 33 -60 46 -38 21
-41 22 -41 5 0 -39 22 -95 51 -127 16 -19 29 -35 29 -38 0 -2 -18 -2 -40 0
-22 2 -40 0 -40 -5 0 -16 84 -90 125 -111 53 -26 120 -38 109 -20 -4 7 3 4 15
-7 l23 -20 -36 -3 c-20 -2 -36 -6 -36 -10 1 -14 46 -60 76 -78 17 -11 46 -36
64 -57 19 -22 58 -52 87 -69 29 -16 53 -32 53 -35 0 -8 -164 8 -173 17 -5 4
-4 11 2 14 31 19 -13 107 -59 120 -11 4 -30 9 -41 12 -20 6 -21 3 -15 -28 l6
-34 -70 4 c-79 5 -86 -3 -37 -44 29 -24 52 -36 112 -58 18 -7 16 -10 -17 -27
-53 -27 -54 -37 -6 -50 51 -13 125 -6 168 16 21 11 60 16 123 17 88 2 97 0
202 -44 61 -25 162 -60 225 -78 63 -18 144 -47 180 -63 l65 -31 -90 -6 c-113
-9 -153 -20 -293 -82 -62 -27 -159 -60 -215 -73 -102 -24 -100 -31 8 -26 33 2
47 -1 40 -7 -17 -16 -168 -122 -174 -122 -3 0 -13 13 -22 29 -22 37 -88 88
-97 74 -12 -19 -36 8 -56 59 -16 45 -87 128 -109 128 -6 0 -8 -19 -4 -50 l6
-50 -37 30 c-35 28 -120 65 -129 56 -9 -9 42 -93 75 -123 l36 -33 -44 0 -43 0
24 -26 c28 -30 109 -74 137 -74 10 0 46 -18 78 -40 41 -27 75 -42 109 -46 l50
-7 -23 25 c-21 23 -46 87 -38 95 6 7 56 -50 73 -82 9 -16 17 -32 19 -34 1 -2
24 15 51 37 26 22 98 66 158 98 98 51 107 54 84 28 -57 -63 -64 -104 -19 -104
35 0 37 -6 13 -33 -10 -11 -12 -17 -5 -13 8 5 12 -1 12 -19 0 -30 23 -90 38
-99 15 -9 51 95 59 168 5 52 12 69 50 118 53 68 106 104 171 120 61 14 148 3
187 -22 l30 -20 -55 0 c-30 0 -62 -5 -70 -10 -13 -8 -12 -11 5 -25 35 -28 99
-55 135 -55 29 -1 31 -3 15 -10 -11 -5 -37 -9 -57 -9 -43 -1 -77 -13 -137 -48
-32 -18 -40 -28 -30 -33 28 -15 105 -20 144 -9 22 7 56 11 75 11 19 0 60 -1
92 -2 50 0 55 -2 51 -19 -11 -42 60 -121 108 -121 42 0 28 -80 -40 -220 -68
-140 -96 -250 -87 -349 8 -99 40 -164 153 -317 49 -67 100 -143 112 -169 66
-140 45 -325 -55 -485 -61 -96 -99 -181 -120 -264 -16 -64 -17 -65 -37 -51
-17 12 -56 15 -172 15 -145 0 -152 -1 -173 -23 l-22 -23 0 -1090 0 -1091 23
-21 c22 -21 33 -22 176 -22 148 0 153 1 176 25 l25 24 0 446 0 445 525 0 525
0 0 -450 c0 -437 1 -451 20 -470 18 -18 33 -20 175 -20 152 0 156 1 180 25
l25 24 0 1086 0 1086 -25 24 c-23 24 -28 25 -179 25 -147 0 -156 -1 -176 -22
-19 -21 -20 -33 -20 -460 l0 -438 -525 0 -525 0 2 393 3 392 518 3 c351 1 517
6 517 13 0 5 -16 40 -35 76 -42 78 -43 106 -9 198 50 137 56 177 41 269 -25
142 -50 182 -218 346 -119 117 -153 156 -175 204 -34 74 -29 141 16 232 55
113 138 168 389 258 322 116 435 217 511 458 18 57 46 129 63 161 36 69 111
140 168 159 41 14 42 13 74 -19 29 -29 39 -33 89 -33 31 0 56 3 56 8 0 4 -8
18 -17 32 -16 22 -16 23 1 17 10 -4 22 -7 28 -7 6 0 8 -7 4 -15 -4 -11 2 -15
25 -15 37 0 89 -21 109 -45 14 -16 12 -17 -20 -10 -29 6 -84 27 -111 42 -9 6
6 -80 19 -103 6 -12 28 -36 49 -55 l38 -33 6 60 c3 32 6 48 7 34 1 -14 11 -38
21 -54 11 -17 18 -33 16 -37 -3 -4 2 -12 10 -19 15 -12 21 -60 9 -60 -12 0
-33 35 -34 54 0 14 -3 17 -11 9 -18 -18 -6 -65 24 -86 33 -26 50 -14 51 36 1
23 5 33 14 30 8 -4 12 8 12 38 1 37 3 41 13 28 7 -8 24 -24 39 -33 27 -18 28
-18 37 7 10 25 5 63 -11 83 -10 14 11 24 50 24 15 0 34 5 42 10 13 9 10 15
-18 40 -37 35 -85 40 -133 14 -41 -21 -34 -25 18 -11 33 8 48 8 70 -3 l28 -14
-45 -7 c-25 -4 -56 -4 -70 -1 -21 4 -23 3 -14 -9 8 -10 8 -22 -1 -43 l-12 -30
-9 25 c-4 13 -9 31 -10 39 -4 23 -93 96 -163 133 l-64 34 32 19 c17 10 31 22
31 26 0 4 9 8 21 8 11 0 66 12 122 26 101 26 178 29 270 8 20 -5 27 -3 27 9 0
9 -8 18 -17 21 -15 4 -131 26 -139 26 -13 0 78 74 111 90 40 19 45 25 45 56 0
39 -2 40 -35 18 -33 -22 -31 -10 5 36 29 37 40 68 20 55 -6 -4 -10 8 -10 29 0
20 -4 36 -8 36 -5 0 -25 -16 -45 -35 l-37 -36 -12 26 c-9 19 -9 28 0 37 14 14
16 57 3 77 -5 8 -16 11 -31 6 -21 -7 -21 -6 -5 19 16 24 16 26 1 26 -21 0 -20
2 8 58 14 27 36 53 50 60 14 6 39 30 55 52 27 38 30 39 34 18 2 -13 5 14 6 60
l1 83 -30 -21 c-16 -12 -30 -19 -30 -15 0 11 32 69 47 87 11 12 13 27 8 50 -8
40 -8 72 -1 118 l6 35 -20 -42 c-13 -27 -25 -40 -34 -37 -18 7 -40 -57 -33
-94 5 -25 4 -26 -9 -7 -13 17 -16 18 -24 5 -6 -8 -15 -33 -21 -54 -10 -37 -8
-53 16 -132 5 -15 0 -25 -19 -38 -25 -16 -26 -16 -26 6 0 13 -9 38 -21 57
l-21 34 -19 -29 c-21 -32 -25 -103 -8 -136 8 -15 8 -32 -2 -65 -10 -36 -24
-54 -68 -89 -77 -61 -186 -116 -315 -158 -128 -42 -136 -43 -109 -13 29 31 66
95 87 146 26 67 54 101 82 101 44 0 21 -34 -33 -49 -25 -8 -26 -9 -9 -16 28
-12 68 7 93 44 13 19 23 38 23 42 0 13 -68 11 -91 -2 -19 -10 -20 -9 -8 13 6
13 25 42 41 65 l29 43 30 -22 c37 -28 98 -27 141 1 l31 19 -34 21 c-38 23 -89
27 -122 10 -18 -9 -16 -6 8 20 16 17 34 30 40 28 5 -2 23 7 38 19 33 28 88 35
66 8 -7 -8 -29 -24 -48 -34 l-36 -19 39 -1 c30 0 45 7 72 34 46 46 45 66 -4
66 l-39 0 54 53 c48 49 53 58 53 98 0 24 5 51 11 59 8 12 10 9 6 -13 -6 -36 9
-45 16 -9 6 30 43 82 58 82 17 0 9 -25 -21 -73 -33 -53 -23 -62 20 -19 38 38
67 142 40 142 -24 0 -69 -31 -89 -62 l-21 -33 0 40 c0 22 -7 51 -14 63 l-13
24 -26 -31 c-14 -18 -29 -48 -32 -69 -3 -20 -8 -48 -11 -62 -3 -14 -8 -37 -11
-53 -8 -42 -23 -43 -23 0 0 21 -5 45 -10 53 -9 13 -13 11 -31 -10 -11 -14 -29
-38 -39 -54 -17 -26 -20 -28 -26 -12 -7 18 31 107 49 114 4 2 7 14 7 27 0 13
11 37 25 52 l24 28 1 -26 c0 -15 -9 -38 -21 -53 -15 -19 -17 -26 -6 -26 34 0
70 72 61 120 -5 25 -9 28 -25 20 -26 -14 -26 -15 -32 42 -9 71 -20 78 -51 32
l-26 -39 0 48 c0 26 -4 47 -9 47 -15 0 -81 -79 -81 -97 0 -15 -1 -15 -18 0
-24 22 -30 14 -38 -45 -7 -50 -14 -57 -33 -34 -9 11 -7 22 11 52 18 31 23 54
23 109 0 66 -18 135 -35 135 -5 0 -16 -21 -26 -46 -17 -46 -18 -46 -34 -24
-15 20 -17 20 -30 5 -8 -9 -16 -42 -18 -73 -3 -48 -1 -61 18 -82 18 -21 20
-21 14 -5 -13 37 -16 83 -6 101 9 15 12 11 22 -26 6 -24 10 -54 7 -66 -2 -13
-1 -21 4 -18 4 2 13 -4 19 -13 8 -14 9 -3 4 42 -4 42 -2 71 9 95 l14 35 8 -47
c9 -56 1 -102 -25 -160 -24 -52 -25 -124 -4 -177 14 -35 14 -45 1 -88 -11 -34
-15 -41 -16 -23 -1 34 -33 84 -70 111 -20 15 -31 32 -31 47 0 25 -7 26 -52 7
-16 -6 -18 0 -18 66 1 45 6 84 15 99 14 24 14 22 15 -32 0 -31 -5 -69 -11 -84
-10 -28 -10 -28 10 -10 37 34 50 109 30 179 -13 47 -26 44 -56 -12 l-22 -42
-16 30 c-8 17 -19 31 -24 31 -15 0 -31 -51 -31 -102 l0 -51 -27 27 c-20 20
-28 24 -35 14 -12 -20 -9 -98 6 -157 l13 -52 -30 37 c-28 33 -32 35 -38 18
-15 -38 -9 -118 11 -151 l20 -33 -33 -16 c-37 -20 -122 -44 -154 -44 -22 0
-22 1 7 47 17 26 33 65 37 87 3 21 17 50 30 65 l25 26 -6 -35 c-4 -19 -15 -52
-26 -73 l-20 -38 21 11 c37 20 59 70 59 134 0 48 -3 57 -15 52 -21 -8 -19 -3
20 44 19 23 37 57 40 78 3 20 11 64 17 97 13 74 -3 155 -28 135 -12 -11 -14
-6 -14 26 0 60 -31 151 -56 164 -21 12 -49 58 -40 67 2 3 23 -12 45 -33 l42
-37 -2 29 c-2 16 1 39 5 50 8 26 -8 71 -36 102 -30 31 -46 28 -54 -13z m47
-26 c6 -12 15 -35 19 -50 l9 -29 -24 18 c-17 12 -24 27 -25 50 0 37 5 40 21
11z m-1449 -98 c53 -49 61 -74 16 -51 -34 18 -58 42 -74 72 -21 41 -2 34 58
-21z m703 -14 c4 -18 5 -49 3 -68 l-4 -34 -12 28 c-14 34 -16 107 -2 107 5 0
12 -15 15 -33z m-1285 -66 l-1 -26 -24 28 c-14 15 -25 38 -25 49 0 21 0 21 25
-2 14 -14 25 -34 25 -49z m53 -64 c-8 -54 -21 -55 -29 -2 -4 29 -2 56 7 77
l13 32 8 -34 c4 -19 4 -52 1 -73z m776 -77 l0 -35 -19 24 c-20 23 -28 99 -12
115 9 10 30 -59 31 -104z m-178 10 c6 -36 9 -76 7 -90 l-4 -25 -14 30 c-16 36
-26 188 -11 165 5 -8 15 -44 22 -80z m651 43 c14 -21 29 -51 33 -68 l6 -29
-21 19 c-27 25 -50 68 -50 95 0 28 3 26 32 -17z m688 -67 c0 -18 -2 -18 -25 4
-19 18 -25 33 -25 64 l1 41 24 -45 c13 -25 24 -54 25 -64z m55 -31 c-3 -30
-10 -55 -15 -55 -16 0 -22 96 -9 141 l13 43 9 -37 c5 -21 6 -62 2 -92z m-501
4 c4 -24 3 -57 -2 -74 -9 -29 -9 -28 -22 26 -14 62 -5 154 10 113 5 -12 11
-41 14 -65z m-964 4 l34 -48 -36 30 c-20 17 -37 38 -37 48 -1 25 2 22 39 -30z
m-491 -30 c23 -31 41 -65 41 -76 0 -19 -1 -19 -26 4 -39 36 -82 129 -60 129 3
0 23 -25 45 -57z m1905 -23 c44 -49 41 -61 -8 -30 -35 21 -67 58 -79 93 -6 17
-4 17 22 -2 15 -11 45 -39 65 -61z m-1289 -41 c-13 -24 -13 -30 -3 -27 7 2 22
23 34 45 l21 41 19 -36 c13 -26 17 -54 16 -92 -2 -39 2 -65 16 -90 l20 -35
-26 -45 c-19 -32 -26 -58 -26 -96 0 -59 -10 -61 -27 -5 -9 30 -8 43 2 62 7 14
14 71 16 139 l4 115 -29 -31 c-17 -18 -34 -40 -40 -50 -18 -32 -25 -8 -24 75
1 57 6 90 19 113 l18 33 3 -42 c2 -25 -4 -55 -13 -74z m903 39 c-6 -33 -18
-64 -29 -74 -18 -16 -19 -16 -19 10 0 38 44 136 55 124 2 -2 -1 -29 -7 -60z
m-768 -28 c0 -9 7 -25 15 -36 24 -31 17 -39 -11 -13 -28 25 -64 93 -63 119 0
9 12 1 29 -20 17 -19 30 -41 30 -50z m222 -28 c5 -61 -6 -77 -21 -30 -12 39
-14 60 -11 108 l2 35 13 -30 c7 -17 15 -54 17 -83z m800 24 c32 -44 35 -56 14
-56 -20 0 -62 57 -72 95 -7 28 -6 29 11 15 10 -8 31 -33 47 -54z m-965 -18
c-4 -32 -3 -37 8 -28 8 7 17 21 20 31 5 16 11 11 31 -28 13 -27 24 -49 24 -50
0 -1 -16 5 -35 13 -19 7 -39 14 -44 14 -12 0 2 -60 23 -92 18 -27 81 -66 91
-56 4 3 1 24 -4 46 -6 22 -9 47 -6 56 17 53 16 51 25 36 15 -23 10 -179 -5
-174 -6 3 -18 -2 -25 -11 -11 -14 -15 -12 -32 15 -22 37 -34 32 -49 -19 -14
-47 -5 -116 20 -154 l18 -28 5 45 c3 25 14 58 24 73 18 26 19 27 22 7 2 -11
-4 -41 -13 -65 -20 -54 -49 -142 -63 -189 l-11 -35 6 37 c7 50 -12 103 -53
144 -29 28 -33 37 -24 53 13 25 13 102 0 135 -6 18 -6 26 1 26 6 0 1 16 -11
35 -14 22 -20 46 -18 67 l4 33 22 -45 c12 -25 22 -56 22 -70 1 -23 2 -23 11
-7 6 10 8 35 5 55 -4 21 -8 57 -9 82 -2 25 -6 51 -10 57 -4 6 -2 23 5 38 10
23 13 24 21 9 5 -9 7 -34 4 -56z m1179 -17 c-15 -14 -16 -12 -16 17 0 18 6 41
13 52 11 19 12 18 15 -16 2 -24 -2 -43 -12 -53z m-1872 -1 c7 -14 16 -40 19
-58 l7 -33 -24 28 c-29 35 -51 79 -60 118 l-6 30 25 -30 c15 -16 32 -41 39
-55z m796 13 c0 -12 -5 -25 -10 -28 -12 -8 -30 36 -30 73 l0 27 20 -25 c11
-14 20 -35 20 -47z m-731 -78 l-12 -40 -9 30 c-9 33 -3 82 15 124 11 25 12 23
15 -24 2 -27 -2 -68 -9 -90z m1247 17 c4 -18 4 -35 1 -38 -12 -12 -50 61 -54
104 l-4 47 25 -40 c14 -22 29 -55 32 -73z m-889 13 c18 -48 24 -85 14 -85 -16
0 -61 102 -61 139 l0 36 18 -30 c10 -16 23 -43 29 -60z m2018 28 c-9 -48 -25
-70 -36 -51 -12 18 -12 19 11 56 26 42 34 41 25 -5z m-2169 -68 c31 -66 31
-89 -2 -50 -34 40 -50 73 -58 115 l-7 35 21 -25 c12 -14 32 -47 46 -75z m1368
9 c10 -26 7 -56 -5 -48 -13 8 -69 94 -69 106 0 13 67 -40 74 -58z m865 -30
c-31 -38 -39 6 -11 64 l17 37 3 -43 c2 -24 -2 -50 -9 -58z m-1388 -33 c39 -60
36 -69 -8 -31 -41 35 -83 96 -83 119 0 21 56 -34 91 -88z m927 52 c9 -40 2
-63 -20 -63 -9 0 -11 71 -2 95 8 21 11 17 22 -32z m-178 -21 c-6 -28 -18 -56
-26 -63 -24 -19 -18 57 7 93 12 16 23 27 25 25 3 -2 0 -27 -6 -55z m-82 -70
l-3 -27 -23 35 c-13 22 -22 50 -21 75 l0 40 25 -48 c14 -27 24 -60 22 -75z
m589 30 c-7 -69 -27 -77 -27 -11 0 29 3 65 7 78 l6 25 9 -25 c6 -13 8 -44 5
-67z m-2405 44 c43 -33 87 -86 71 -86 -20 0 -85 48 -108 79 -14 19 -25 36 -25
38 0 10 23 -1 62 -31z m-403 -116 c0 -44 0 -44 -14 -20 -24 41 -35 95 -28 131
l6 34 18 -50 c10 -28 18 -70 18 -95z m1219 80 l13 -33 -22 15 c-13 8 -29 30
-37 48 l-13 33 22 -15 c13 -8 29 -30 37 -48z m-253 -60 c-8 -111 -22 -122 -32
-26 -4 43 -1 66 12 96 10 22 20 38 23 36 2 -3 1 -51 -3 -106z m502 66 c26 -24
46 -47 42 -50 -11 -11 -74 30 -92 62 -26 44 -8 40 50 -12z m180 -13 c-2 -27
-8 -57 -12 -67 -6 -14 -5 -17 3 -12 14 9 16 -13 2 -34 -8 -12 -10 -11 -10 7 0
12 -4 25 -10 28 -16 10 -12 64 7 96 10 16 19 29 21 29 3 0 2 -21 -1 -47z
m-1702 -60 c7 -17 23 -41 34 -52 12 -12 18 -21 14 -21 -12 0 -109 102 -122
127 -21 41 -11 47 25 12 19 -18 42 -48 49 -66z m2903 17 c-7 -17 -16 -30 -21
-30 -9 0 1 46 16 75 10 18 11 18 15 2 2 -9 -2 -31 -10 -47z m262 23 c0 -26 -3
-34 -9 -24 -5 7 -14 10 -20 7 -14 -9 -14 -3 1 29 16 36 28 31 28 -12z m-704
-68 c-15 -30 -15 -30 -15 35 l1 65 15 -35 c13 -30 13 -37 -1 -65z m333 -11
c-12 -15 -14 -14 -20 13 -3 17 -4 46 -1 64 l5 34 15 -47 c13 -40 13 -49 1 -64z
m-553 1 c-9 -25 -15 -32 -15 -20 -1 11 -4 38 -7 60 l-6 40 21 -20 c20 -20 21
-23 7 -60z m719 48 c-3 -16 -18 -46 -32 -67 -20 -30 -21 -38 -8 -33 13 6 13 2
-4 -19 -43 -55 -50 -164 -13 -179 15 -6 15 -7 -1 -17 -10 -5 -39 -37 -64 -71
l-45 -62 6 70 c3 39 6 106 5 151 l0 81 35 27 c20 15 40 25 45 22 5 -3 12 10
15 29 6 30 49 95 63 95 3 0 2 -12 -2 -27z m-439 -46 c-7 -25 -24 -60 -37 -78
-18 -26 -19 -31 -6 -26 14 5 15 4 5 -13 -21 -33 -28 1 -14 64 12 48 51 114 63
103 2 -2 -3 -24 -11 -50z m-1559 11 c-3 -7 -5 -2 -5 12 0 14 2 19 5 13 2 -7 2
-19 0 -25z m-1012 -7 c54 -31 86 -61 66 -61 -37 0 -131 59 -131 82 0 13 12 9
65 -21z m1631 4 c32 -13 108 -75 100 -82 -8 -8 -110 46 -146 78 -32 27 -33 30
-10 23 14 -3 39 -12 56 -19z m1008 -52 c-35 -56 -60 -70 -50 -27 7 29 63 90
73 80 4 -3 -7 -27 -23 -53z m-2435 -93 c0 -9 -14 0 -34 22 -29 31 -35 45 -35
80 l1 43 34 -65 c19 -36 34 -72 34 -80z m129 12 c-7 -31 -13 -65 -13 -74 0
-10 -4 -17 -9 -15 -15 4 -6 137 12 181 l17 41 3 -38 c2 -21 -3 -63 -10 -95z
m830 66 c-3 -35 -9 -72 -13 -82 -6 -14 -5 -17 3 -12 14 8 16 -13 3 -32 -22
-36 -36 105 -15 156 20 48 27 39 22 -30z m1742 52 c0 -17 -30 -58 -47 -64 -12
-5 -14 -1 -8 21 3 15 11 34 17 40 13 16 38 17 38 3z m286 -43 c-8 -50 -16 -63
-27 -46 -12 19 -11 56 2 80 16 32 32 11 25 -34z m-2138 -17 c5 0 24 -34 42
-76 43 -98 105 -184 220 -309 144 -155 255 -299 317 -413 71 -129 127 -183
243 -232 101 -42 166 -98 221 -191 39 -65 67 -91 55 -51 -15 51 -27 235 -30
452 -3 274 -14 341 -80 472 -40 80 -32 89 14 17 82 -127 109 -264 116 -604 5
-207 9 -261 25 -315 51 -170 23 -316 -82 -434 -55 -63 -25 -47 48 25 111 109
199 306 218 489 8 86 31 173 62 238 28 60 94 146 123 162 18 10 19 9 10 -16
-6 -15 -25 -43 -42 -63 -17 -19 -39 -53 -49 -75 -18 -41 -42 -169 -54 -281 -3
-33 -9 -73 -11 -90 l-5 -30 21 30 c12 17 32 54 46 84 58 129 146 205 279 243
44 13 95 33 114 45 38 26 83 36 132 31 l34 -4 -30 -13 c-16 -7 -57 -18 -90
-24 -33 -6 -62 -14 -65 -18 -3 -3 -33 -13 -68 -22 -147 -37 -211 -114 -302
-361 -61 -165 -77 -198 -124 -252 -56 -66 -133 -110 -353 -205 -113 -48 -237
-108 -277 -133 -141 -88 -206 -181 -207 -297 -1 -134 28 -187 198 -361 106
-108 140 -151 164 -201 62 -133 62 -229 -2 -392 -34 -86 -35 -136 -4 -194 l14
-29 -45 -7 c-55 -8 -89 10 -97 52 -6 33 9 122 30 175 22 55 11 69 -20 23 -28
-44 -57 -138 -58 -195 0 -33 -1 -34 -10 -10 -14 33 1 106 51 256 31 92 40 133
40 186 0 70 -20 129 -54 157 -20 17 -20 8 0 -31 24 -47 13 -138 -36 -293 -48
-154 -63 -239 -51 -282 9 -30 9 -31 -36 -37 -99 -13 -157 3 -169 48 -7 29 31
106 117 236 84 129 100 167 100 244 0 111 -44 224 -149 384 -90 137 -111 227
-77 337 17 57 14 66 -9 30 -50 -76 -60 -195 -26 -293 11 -31 46 -95 77 -142
86 -130 111 -175 129 -236 22 -78 14 -110 -69 -249 -77 -129 -133 -254 -143
-323 l-6 -43 -56 7 c-30 4 -97 7 -148 8 -52 0 -94 2 -94 4 0 2 16 37 36 78 20
42 33 78 29 82 -3 3 -9 2 -13 -4 -60 -88 -80 -114 -105 -141 -33 -35 -54 -42
-63 -19 -7 18 38 130 131 325 85 180 102 252 91 393 -11 143 -37 200 -195 417
-71 97 -94 163 -94 266 0 91 22 163 89 294 65 127 78 190 57 271 -16 64 -45
115 -105 187 -24 29 -54 67 -68 85 l-25 33 42 -33 c107 -84 192 -210 223 -331
l17 -66 12 60 c7 33 24 99 37 147 47 165 29 287 -58 384 -19 22 -38 53 -42 69
-4 18 -33 55 -75 95 -37 36 -88 95 -114 131 -47 68 -131 150 -177 174 -14 7
-52 21 -85 30 -33 10 -82 29 -110 42 -53 27 -158 103 -151 110 2 2 38 -18 80
-46 42 -27 106 -59 144 -71 168 -55 230 -106 395 -320 47 -62 102 -118 157
-162 79 -63 119 -112 121 -148 0 -13 1 -13 6 0 16 40 135 210 173 245 l42 40
-35 -50 c-60 -85 -116 -213 -126 -290 -13 -87 -29 -133 -84 -241 -24 -46 -42
-84 -39 -84 3 0 29 23 58 50 29 28 59 50 68 50 8 0 23 3 33 7 10 3 -13 -27
-52 -68 -185 -197 -265 -357 -265 -529 0 -95 20 -167 89 -324 82 -184 113
-280 119 -361 6 -90 -23 -316 -54 -424 -14 -46 -23 -85 -21 -88 7 -7 65 133
81 193 49 193 50 321 5 524 -59 269 -44 406 55 505 62 63 129 88 290 110 220
30 259 37 314 56 30 10 79 37 107 58 85 65 104 126 82 272 -27 183 -81 256
-262 354 -152 83 -201 133 -248 255 -31 78 -50 109 -105 172 -212 242 -270
311 -328 388 -66 87 -139 222 -149 275 l-6 30 15 -32 c8 -18 19 -33 24 -33z
m242 30 c0 -17 -21 -63 -26 -57 -9 8 7 77 17 71 5 -3 9 -9 9 -14z m905 -118
l-8 -37 -12 35 c-17 45 -18 72 -3 107 l11 28 10 -48 c5 -26 6 -64 2 -85z m520
5 l17 -27 -28 15 c-33 17 -64 20 -64 6 0 -47 64 -124 117 -142 36 -11 44 -38
18 -59 -12 -10 -15 -10 -15 3 0 9 -11 29 -25 44 -24 27 -25 28 -40 9 -8 -11
-15 -37 -15 -59 l0 -38 -29 20 c-42 30 -51 27 -51 -23 0 -29 8 -55 24 -78 13
-19 26 -51 30 -71 9 -46 27 -49 19 -4 -3 21 2 48 13 72 l18 40 4 -44 c2 -23
-2 -57 -7 -74 -15 -43 -6 -46 18 -6 12 19 21 51 21 74 0 48 42 125 48 88 5
-35 -70 -212 -105 -244 l-23 -22 0 27 c0 35 -26 86 -45 86 -35 0 -48 -97 -19
-138 18 -27 21 -22 -81 -132 -120 -128 -155 -210 -206 -473 -17 -92 -33 -166
-35 -164 -2 2 -15 46 -28 98 -30 116 -46 235 -46 349 0 84 1 87 30 108 26 20
30 29 30 72 0 42 -2 48 -17 43 -13 -5 -15 -3 -9 13 5 10 12 33 17 51 13 44 89
106 89 73 0 -5 -18 -28 -40 -50 -32 -32 -36 -40 -21 -40 52 0 119 111 137 228
8 50 -2 53 -51 17 l-33 -26 -6 27 c-8 31 -35 74 -46 74 -25 0 -38 -114 -19
-168 9 -25 6 -38 -15 -79 -13 -26 -30 -56 -38 -66 -11 -15 -13 -11 -10 30 2
36 -8 79 -41 174 -40 113 -43 130 -32 156 17 39 67 80 117 93 49 14 68 8 68
-22 0 -31 24 -65 60 -83 40 -21 50 -19 50 9 0 23 2 23 69 18 41 -3 71 0 75 6
3 5 -10 24 -30 41 l-35 32 22 18 23 18 -38 13 -38 12 53 55 c30 30 68 60 85
68 17 7 40 24 50 38 l19 25 11 -42 c6 -23 19 -54 29 -69z m360 82 c-7 -26 -55
-68 -55 -48 0 15 50 82 56 76 3 -3 2 -15 -1 -28z m340 -20 c4 -17 1 -30 -9
-38 -14 -12 -16 -8 -16 35 0 50 13 52 25 3z m-950 -13 c9 -24 15 -54 13 -67
l-3 -24 -19 27 c-21 32 -34 108 -18 108 6 0 18 -20 27 -44z m304 -40 c11 -28
20 -45 20 -37 1 8 4 12 7 8 3 -3 -1 -15 -9 -27 -13 -19 -15 -19 -28 -3 -9 11
-10 14 -1 9 18 -11 15 9 -5 25 -18 16 -43 70 -43 95 0 31 38 -14 59 -70z m355
23 c-19 -22 -98 -79 -108 -79 -14 0 -4 28 17 48 21 20 81 51 101 52 5 0 1 -10
-10 -21z m-878 -35 c-7 -55 -41 -118 -74 -140 -36 -23 -36 -12 -1 32 39 49 69
107 69 134 0 11 3 20 6 20 4 0 4 -21 0 -46z m724 -57 c-6 -21 -15 -35 -20 -32
-16 10 -11 74 7 108 l18 32 3 -35 c2 -19 -1 -52 -8 -73z m-2576 66 c-10 -50
-35 -113 -45 -113 -19 0 -8 66 16 103 31 44 37 46 29 10z m2961 -47 c8 -41 3
-77 -10 -76 -14 1 -25 48 -18 81 7 39 21 37 28 -5z m-2689 -84 c4 -18 4 -35 1
-38 -12 -12 -50 61 -54 104 l-4 47 25 -40 c14 -22 29 -55 32 -73z m109 -9 c-3
-29 -11 -53 -16 -53 -13 0 -11 95 4 127 l12 27 3 -24 c2 -13 1 -48 -3 -77z
m456 20 c6 -18 9 -40 7 -49 -5 -28 -50 44 -55 90 l-5 41 21 -25 c11 -14 26
-40 32 -57z m269 3 c0 -28 0 -29 -20 -11 -13 12 -20 31 -20 54 l0 36 20 -25
c11 -14 20 -38 20 -54z m1243 30 c15 -14 27 -33 27 -42 0 -32 -72 27 -83 68
-6 22 15 12 56 -26z m-2510 -6 c8 -29 0 -24 -19 13 -14 27 -15 30 -2 19 9 -7
18 -22 21 -32z m1802 -46 c-7 -51 -22 -65 -31 -29 -7 28 2 73 19 94 10 12 13
11 15 -4 2 -9 1 -37 -3 -61z m785 17 c-10 -39 -30 -38 -30 1 0 41 21 69 31 41
3 -10 3 -29 -1 -42z m220 52 c-8 -3 -28 -12 -44 -20 -17 -9 -25 -10 -21 -3 8
13 43 29 65 29 13 -1 13 -1 0 -6z m-2976 -54 l19 -34 -31 29 c-33 30 -42 51
-20 44 7 -3 22 -20 32 -39z m1493 3 c12 -47 7 -68 -13 -51 -15 12 -20 89 -5
89 5 0 13 -17 18 -38z m-1591 18 c15 -6 43 -25 62 -42 31 -26 32 -29 11 -23
-13 4 -43 18 -66 31 -64 37 -69 57 -7 34z m870 -32 c-10 -66 -26 -108 -41
-108 -10 0 -12 10 -8 38 5 34 41 112 51 112 3 0 2 -19 -2 -42z m1623 26 c11
-11 -17 -19 -80 -22 -76 -5 -93 9 -31 26 33 9 100 7 111 -4z m-2137 -31 c20
-21 41 -49 48 -62 l13 -25 -34 21 c-32 20 -79 76 -79 94 0 18 17 8 52 -28z
m3077 -13 c-13 -22 -34 -50 -47 -62 l-24 -23 7 35 c4 21 19 46 38 62 45 38 52
35 26 -12z m-2394 -59 c-6 -31 -7 -32 -20 -15 -18 23 -19 58 -3 87 11 22 12
21 20 -8 5 -16 6 -45 3 -64z m-1376 25 c14 -58 14 -59 -9 -46 -15 8 -20 21
-20 50 0 53 15 51 29 -4z m3621 -12 c0 -17 -7 -37 -15 -44 -13 -11 -15 -6 -15
37 0 27 3 53 7 56 11 11 23 -15 23 -49z m-3689 -31 c26 -41 21 -59 -9 -37 -22
15 -62 83 -62 105 0 17 46 -28 71 -68z m2821 53 c4 -6 8 -20 8 -30 0 -19 0
-19 -21 0 -11 10 -25 26 -30 35 -7 14 -5 16 14 11 12 -3 25 -10 29 -16z m124
-7 c6 -11 -31 -7 -81 9 -17 5 -16 7 10 12 31 7 59 -2 71 -21z m548 15 c26 -10
19 -21 -17 -27 -38 -6 -87 2 -87 13 0 16 74 25 104 14z m-1545 -23 c20 -11 43
-27 50 -35 12 -14 10 -16 -13 -16 -16 0 -41 13 -64 35 -41 38 -31 45 27 16z
m1210 -41 c-16 -11 -25 11 -14 38 6 15 9 14 18 -6 8 -18 8 -25 -4 -32z m-1849
27 c0 -8 13 -32 30 -55 16 -23 25 -44 20 -47 -6 -3 -10 -16 -10 -28 -1 -18 -3
-16 -15 10 -11 26 -28 42 -73 69 -1 1 5 15 15 33 19 33 33 40 33 18z m100 -57
c9 -14 21 -36 25 -49 l7 -24 -31 22 c-30 22 -71 86 -71 112 0 14 43 -24 70
-61z m60 -73 c-12 -31 -23 -57 -25 -57 -3 0 -11 13 -19 29 -15 27 -14 28 9 24
22 -5 23 -3 18 35 -4 29 0 49 13 72 l19 32 3 -40 c2 -22 -6 -63 -18 -95z m950
86 c0 -7 -4 -13 -10 -13 -5 0 -10 6 -10 14 0 8 -3 23 -6 33 -5 16 -4 16 10 -1
9 -11 16 -26 16 -33z m-64 -70 c-4 -12 -11 -23 -16 -23 -14 0 -12 77 3 103 11
21 12 20 15 -17 2 -22 1 -50 -2 -63z m-2162 37 c19 -47 19 -50 7 -50 -19 0
-41 32 -41 61 0 41 15 36 34 -11z m544 18 c4 -22 -25 -24 -50 -4 -27 20 -22
28 14 24 22 -2 34 -9 36 -20z m2992 18 c0 -20 -37 -99 -61 -128 -31 -40 -31
-45 2 -28 36 20 19 2 -28 -29 -25 -17 -55 -31 -66 -31 -19 0 -19 1 4 26 13 14
33 30 44 34 13 5 25 24 33 54 12 47 48 106 64 106 4 0 8 -2 8 -4z m-3095 -105
c6 -34 4 -42 -6 -39 -21 7 -42 73 -34 105 l7 28 13 -25 c7 -14 16 -45 20 -69z
m2468 29 c-8 -31 -33 -5 -33 34 l1 31 18 -22 c11 -14 17 -31 14 -43z m-2530
-5 c2 -14 1 -25 -4 -25 -11 0 -49 51 -49 67 0 23 47 -14 53 -42z m96 22 c0
-21 -1 -21 -9 -2 -12 28 -12 37 0 30 6 -3 10 -16 9 -28z m254 -72 c29 -20 68
-56 85 -81 37 -51 37 -54 17 -54 -14 0 -14 -3 0 -29 8 -16 27 -39 41 -50 26
-21 27 -22 8 -36 -10 -8 -23 -15 -28 -15 -6 0 -5 -5 2 -12 6 -6 47 -13 90 -16
64 -4 87 -1 123 15 l45 20 43 -84 c34 -65 55 -94 100 -129 71 -58 126 -124
141 -170 15 -44 8 -93 -27 -198 l-26 -79 -27 59 c-50 108 -132 188 -257 250
-53 26 -78 45 -90 67 -9 18 -31 57 -51 87 l-34 54 -15 -28 -15 -28 -24 33
c-22 30 -110 109 -121 109 -3 0 -2 -21 2 -46 l7 -46 -48 33 c-64 46 -80 72
-65 105 18 41 13 98 -12 135 -29 43 -39 43 -53 0 -9 -27 -12 -30 -18 -16 -4
10 -2 21 3 24 15 9 31 58 31 94 0 29 3 26 25 -27 13 -33 34 -69 45 -80 18 -18
16 -10 -10 46 -22 47 -30 78 -28 105 l4 38 23 -50 c12 -27 26 -69 31 -93 13
-70 23 -62 18 14 -4 55 -12 85 -36 128 l-31 57 39 -35 c22 -20 63 -51 93 -71z
m-803 37 c16 -25 30 -49 30 -54 0 -17 -60 33 -75 62 -34 67 0 61 45 -8z m1952
48 c20 -6 47 -19 60 -30 l23 -20 -45 6 c-47 7 -94 27 -105 44 -8 13 20 13 67
0z m-1323 -47 c-1 -34 -2 -35 -9 -13 -11 36 -11 50 0 50 6 0 10 -17 9 -37z
m-743 12 c20 -8 52 -29 71 -45 l35 -31 -29 7 c-42 10 -75 29 -102 58 -28 30
-24 32 25 11z m712 -101 c6 -74 -11 -88 -28 -23 -14 50 -4 133 12 104 6 -10
13 -46 16 -81z m1495 56 c26 -13 47 -27 47 -30 0 -5 -77 -52 -111 -68 -4 -1
-4 8 -2 22 3 14 0 40 -6 57 -9 25 -8 34 1 41 7 4 15 7 18 5 3 -1 26 -13 53
-27z m526 -7 c11 -38 5 -83 -10 -83 -12 0 -22 65 -15 95 9 34 13 32 25 -12z
m-2569 12 c7 -9 8 -15 2 -15 -5 0 -12 7 -16 15 -3 8 -4 15 -2 15 2 0 9 -7 16
-15z m2335 -55 l7 -25 -21 27 c-12 15 -19 33 -15 39 8 13 17 0 29 -41z m-171
-8 c-48 -45 -166 -113 -195 -112 -8 1 11 14 41 30 30 15 87 51 125 79 39 27
72 50 75 50 3 0 -18 -21 -46 -47z m486 34 c0 -21 -26 -65 -41 -69 -25 -7 -24
8 2 44 17 24 39 39 39 25z m-2511 -91 c45 -65 47 -80 6 -49 -36 28 -68 72 -80
114 l-7 25 27 -25 c15 -14 39 -43 54 -65z m1801 5 c-9 -32 -14 -40 -21 -29
-12 20 -11 66 3 92 l11 22 9 -21 c6 -13 5 -36 -2 -64z m332 50 c-11 -19 -20
-26 -27 -19 -7 7 -2 16 15 29 14 11 26 20 27 20 1 0 -6 -13 -15 -30z m-1808
-28 c49 -37 87 -82 69 -82 -21 0 -99 59 -116 89 -24 41 -13 39 47 -7z m493
-45 c54 -51 70 -49 32 4 -23 33 -20 35 20 15 24 -13 101 -89 101 -101 0 -10
-104 9 -119 22 -9 8 -35 27 -58 43 -23 16 -49 43 -58 60 -16 31 -16 31 7 19
12 -7 46 -35 75 -62z m2566 31 c-2 -43 -2 -43 7 -11 6 18 20 38 32 44 19 10
20 9 14 -17 -4 -16 -15 -37 -23 -46 -15 -16 -15 -18 0 -18 15 0 14 -5 -5 -41
l-21 -41 -14 32 c-13 32 -14 32 -33 15 -29 -26 -43 -85 -29 -124 6 -17 15 -31
20 -31 5 0 4 12 -2 26 -12 33 7 106 22 83 12 -20 11 -73 -2 -102 -12 -27 -101
-77 -140 -79 -13 -1 -37 -1 -53 0 l-30 2 26 28 c14 15 31 38 38 51 12 24 12
24 -30 17 -56 -9 -112 -38 -155 -81 -44 -45 -46 -69 -2 -29 48 45 62 54 98 64
l32 10 -29 -31 c-43 -45 -110 -76 -191 -86 l-72 -9 24 40 c13 23 27 61 31 85
l7 43 -34 -17 c-19 -10 -46 -31 -61 -48 -26 -27 -28 -27 -28 -8 0 29 58 63
215 128 71 30 152 67 180 82 27 16 68 37 90 48 100 50 120 61 120 62 0 1 -1
-18 -2 -41z m-1213 -39 c0 -27 -4 -49 -10 -49 -12 0 -24 63 -15 89 11 35 25
13 25 -40z m595 -28 c-6 -25 -7 -25 -21 -7 -15 21 -18 54 -7 82 10 28 36 -42
28 -75z m-2814 23 c11 -9 17 -19 15 -21 -10 -10 -85 19 -106 42 l-24 25 48
-14 c26 -8 56 -22 67 -32z m2126 9 c51 -92 85 -219 103 -380 5 -50 13 -100 17
-110 4 -13 -1 -11 -23 9 -16 15 -81 51 -144 81 -133 62 -178 104 -234 216
l-36 70 33 11 c17 6 82 39 142 74 61 35 113 64 116 65 3 1 15 -16 26 -36z
m-1925 -46 c8 -17 7 -18 -14 -12 -28 9 -48 32 -48 59 0 18 2 18 26 -5 14 -13
30 -32 36 -42z m2058 -9 c-1 -35 -3 -40 -11 -25 -10 17 -5 67 6 67 3 0 5 -19
5 -42z m-1741 -52 c1 -36 -2 -47 -10 -39 -14 14 -24 87 -14 110 7 17 8 17 15
-2 5 -11 9 -42 9 -69z m2596 75 c-3 -5 -54 -28 -113 -51 -59 -24 -124 -51
-144 -61 -45 -23 -48 -23 -48 -5 0 14 99 54 220 90 30 9 62 20 70 26 19 12 23
12 15 1z m-2252 -22 c37 -19 39 -23 22 -29 -26 -10 -55 2 -73 28 -19 28 -4 29
51 1z m2701 -28 c-18 -46 -34 -54 -34 -16 0 23 36 72 46 62 3 -2 -3 -23 -12
-46z m-1954 -16 c0 -38 -10 -75 -20 -75 -14 0 -20 66 -9 99 13 38 29 25 29
-24z m-1705 14 c45 -40 49 -67 5 -44 -28 15 -50 42 -50 64 0 17 6 14 45 -20z
m3575 -70 c-7 -16 -19 -34 -28 -41 -14 -12 -14 -8 -8 31 4 24 14 57 24 73 l17
30 3 -32 c2 -18 -2 -45 -8 -61z m-3356 35 c26 -13 60 -34 75 -45 l26 -22 -40
7 c-46 9 -111 44 -140 76 l-20 23 25 -8 c14 -4 47 -18 74 -31z m1405 -56 c1
-32 -3 -58 -8 -58 -11 0 -31 87 -25 107 15 48 16 49 24 28 5 -11 9 -46 9 -77z
m-1295 62 c53 -18 122 -58 114 -66 -9 -8 -114 27 -149 51 -62 41 -52 45 35 15z
m-391 -11 c79 -26 93 -39 43 -39 -40 0 -97 22 -117 46 -16 20 -1 18 74 -7z
m1177 4 c-43 -19 -113 -28 -137 -18 -30 12 42 33 112 33 l60 0 -35 -15z m226
-38 c16 -39 19 -75 5 -75 -15 0 -43 69 -36 90 9 28 14 25 31 -15z m2309 -21
c-66 -32 -85 -31 -55 1 18 19 33 25 64 24 l41 -1 -50 -24z m-1145 -22 c0 -21
-27 -62 -41 -62 -14 0 -11 33 7 58 18 27 34 29 34 4z m-2390 2 c0 -3 -16 -12
-35 -20 -33 -14 -155 -20 -142 -7 19 19 177 44 177 27z m1816 -179 c28 -27 98
-78 156 -112 116 -69 163 -114 207 -200 110 -219 67 -363 -126 -423 -34 -10
-126 -29 -205 -40 -184 -28 -246 -44 -327 -85 -131 -66 -185 -153 -186 -297 0
-49 -1 -88 -3 -88 -2 0 -14 25 -28 56 -57 129 -69 265 -33 379 17 55 31 78 73
121 34 34 68 57 95 65 37 11 44 10 68 -7 15 -11 29 -26 31 -33 6 -19 -37 -4
-65 22 -20 18 -23 19 -23 3 0 -32 46 -66 90 -66 44 0 44 -1 31 33 -9 23 -8 25
39 30 27 3 59 11 72 18 21 11 20 12 -23 35 -24 13 -54 23 -67 24 -22 0 -21 2
13 35 47 44 39 59 -31 53 -30 -3 -54 -3 -54 0 0 2 16 27 36 54 27 37 41 47 53
42 9 -4 40 -10 69 -12 l54 -4 -16 30 c-9 17 -20 34 -26 37 -16 10 -12 22 9 28
20 5 44 -5 41 -18 -1 -5 20 -16 46 -26 45 -17 94 -54 94 -70 0 -13 -59 12
-111 47 l-50 33 18 -31 c22 -38 104 -85 161 -94 24 -4 45 -4 47 -2 12 11 -51
81 -96 107 l-50 28 37 6 c57 9 91 -1 104 -33 17 -42 53 -71 100 -81 24 -5 45
-8 47 -5 13 13 -43 90 -82 114 -25 15 -45 30 -45 33 0 3 17 13 38 23 l37 18
-25 11 c-30 12 -154 15 -193 4 l-28 -8 16 30 c8 17 15 32 15 36 0 3 -20 5 -44
5 -33 0 -49 -6 -70 -26 -14 -15 -26 -30 -26 -35 0 -4 -26 -15 -57 -24 -32 -9
-74 -25 -93 -35 l-36 -18 8 76 c15 137 50 227 138 351 l52 74 37 -69 c20 -38
59 -91 87 -119z m960 92 c-3 -29 -1 -45 4 -42 6 4 10 -2 11 -12 0 -10 8 0 19
23 16 37 67 90 77 80 12 -12 -69 -126 -89 -126 -21 0 -101 -74 -129 -119 l-29
-45 0 36 c0 49 27 130 56 164 24 29 24 29 40 9 15 -19 16 -18 10 18 -4 22 -2
54 5 75 12 36 12 36 21 12 6 -14 7 -47 4 -73z m-2341 13 c146 -50 277 -101
272 -106 -8 -8 -303 94 -362 125 -33 18 -51 29 -40 25 11 -3 70 -23 130 -44z
m726 13 c43 -39 77 -93 59 -93 -17 0 -96 84 -102 108 -8 29 -5 28 43 -15z
m2283 18 c7 -11 -15 -21 -66 -31 -53 -10 -71 5 -28 24 39 17 86 21 94 7z
m-2688 -113 c18 -35 5 -36 -37 -1 -27 23 -59 77 -59 100 0 13 81 -71 96 -99z
m83 -39 c17 -29 30 -55 29 -60 -2 -5 -18 3 -35 17 -26 20 -33 33 -33 60 0 19
2 34 4 34 1 0 17 -23 35 -51z m2248 10 c26 -10 27 -12 8 -19 -28 -12 -93 -12
-99 -1 -4 5 6 14 21 19 37 14 37 14 70 1z m-2159 -102 c39 -23 37 -32 -3 -17
-20 8 -30 8 -35 0 -5 -7 -25 -6 -65 5 -33 8 -86 16 -120 17 l-60 1 65 7 c114
12 182 8 218 -13z m2116 -7 l20 -20 -22 0 c-32 0 -92 27 -92 41 0 18 70 3 94
-21z m-2545 -24 c-9 -8 -249 -126 -249 -122 0 9 108 70 170 97 60 25 90 35 79
25z m-803 -45 c45 -32 79 -69 72 -76 -10 -11 -92 42 -110 73 -25 40 -13 41 38
3z m125 -24 c8 -15 7 -18 -8 -15 -24 4 -33 17 -33 48 1 25 1 25 16 5 9 -11 20
-28 25 -38z m1223 -41 c14 -23 14 -26 1 -26 -20 0 -91 65 -98 90 -4 17 0 16
37 -10 24 -16 50 -40 60 -54z m711 24 c-27 -28 -65 -41 -65 -22 0 11 30 38 50
45 37 14 42 6 15 -23z m-1316 -12 c-31 -58 -65 -101 -87 -109 -14 -5 -27 -8
-29 -5 -8 7 59 76 74 76 8 0 11 5 7 11 -4 7 4 20 17 30 31 24 32 24 18 -3z
m504 -7 l31 -20 -44 5 c-88 10 -108 15 -121 31 -13 15 -9 16 44 10 32 -3 72
-15 90 -26z m2258 19 c5 0 9 -15 9 -32 -1 -32 -1 -32 -16 -13 -9 11 -20 29
-26 39 -9 16 -8 18 7 13 9 -4 21 -7 26 -7z m211 -27 c10 -9 18 -29 18 -47 l-1
-31 -24 28 c-23 26 -34 67 -18 67 3 0 15 -7 25 -17z m-92 -12 c5 -11 10 -30
10 -42 0 -18 -2 -20 -16 -8 -8 7 -22 25 -30 41 -14 26 -13 28 5 28 11 0 25 -9
31 -19z m-1410 -8 c-34 -15 -191 -32 -179 -19 16 17 91 35 149 34 l65 0 -35
-15z m-1988 -91 c27 -44 15 -53 -23 -16 -32 30 -59 74 -59 95 0 17 56 -38 82
-79z m-124 53 c37 -16 42 -35 10 -35 -28 0 -103 34 -113 50 -9 15 51 6 103
-15z m1280 -28 c52 -24 62 -37 27 -37 -35 0 -86 23 -110 49 l-19 22 29 -7 c17
-4 49 -16 73 -27z m582 -3 c21 -20 22 -24 7 -24 -25 0 -97 38 -97 51 0 18 63
-1 90 -27z m-700 1 c32 -24 33 -25 9 -25 -31 0 -53 15 -45 29 9 14 10 14 -52
-9 -53 -20 -122 -27 -122 -12 0 8 16 14 95 37 36 11 84 3 115 -20z m1037 -5
c29 -17 62 -60 47 -60 -15 0 -81 43 -92 61 -16 26 2 26 45 -1z m-1583 -22 c-3
-18 -13 -53 -21 -77 -14 -39 -17 -42 -24 -24 -10 27 5 89 27 114 23 25 24 24
18 -13z m699 -77 c33 -21 63 -61 47 -61 -21 0 -69 30 -80 49 -19 37 -10 40 33
12z m448 -80 c-26 -20 -100 -46 -107 -38 -3 3 9 16 26 31 22 18 43 26 68 26
l37 0 -24 -19z m27 -66 c44 -13 23 -27 -30 -21 -132 15 -138 17 -73 26 51 7
64 6 103 -5z"/>
<path d="M9346 7879 c-156 -20 -268 -110 -291 -232 -4 -22 -3 -37 3 -37 5 0
12 13 15 30 22 108 146 190 336 221 46 8 67 15 59 20 -15 10 -28 10 -122 -2z"/>
<path d="M8756 7807 c-16 -52 -1 -157 33 -236 31 -73 167 -311 177 -311 10 0
-9 46 -87 210 -73 154 -102 242 -111 330 l-4 35 -8 -28z"/>
<path d="M9215 7135 c52 -122 68 -182 69 -260 1 -70 -3 -88 -30 -145 -17 -36
-46 -83 -64 -103 -40 -45 -24 -49 26 -5 79 69 121 178 110 286 -6 74 -63 206
-103 244 l-25 23 17 -40z"/>
<path d="M10240 9231 c-17 -32 -11 -66 15 -91 28 -27 32 -21 10 14 -11 17 -13
30 -6 47 9 23 9 23 25 -14 9 -21 14 -42 11 -47 -4 -6 -2 -10 3 -10 12 0 22 24
22 51 0 21 -42 69 -59 69 -6 0 -15 -9 -21 -19z"/>
<path d="M8548 8833 c-15 -4 -13 -8 11 -29 47 -39 111 -64 169 -64 33 0 51 4
47 10 -3 6 -24 10 -47 10 -39 0 -103 23 -114 42 -9 15 84 -1 136 -23 l45 -19
-32 29 c-47 43 -144 63 -215 44z"/>
<path d="M9670 9025 c0 -51 59 -125 99 -125 11 0 6 8 -16 25 -35 28 -65 92
-35 76 20 -11 55 -48 70 -76 11 -19 11 -18 12 7 0 33 -44 86 -87 104 -43 18
-43 18 -43 -11z"/>
<path d="M9713 8843 c7 -40 46 -83 75 -83 14 1 14 2 -3 12 -27 15 -45 38 -45
60 0 16 3 17 20 8 12 -6 26 -22 32 -35 14 -31 27 -24 20 10 -6 32 -47 65 -80
65 -23 0 -24 -3 -19 -37z"/>
<path d="M10275 10485 c-18 -18 -25 -35 -25 -65 0 -22 4 -40 10 -40 5 0 7 12
4 28 -4 20 0 33 15 46 21 19 21 19 21 -15 0 -19 -5 -40 -12 -47 -21 -21 -2
-22 20 -2 22 21 29 70 16 104 -9 22 -21 20 -49 -9z"/>
<path d="M9619 10437 c-29 -19 -34 -29 -34 -62 0 -48 19 -56 58 -25 21 17 27
30 27 60 0 21 -4 41 -9 44 -5 3 -24 -5 -42 -17z m21 -35 c0 -21 -27 -62 -41
-62 -14 0 -11 33 7 58 18 27 34 29 34 4z"/>
<path d="M9075 10340 c-8 -16 -15 -43 -15 -59 0 -34 19 -81 32 -81 5 0 4 9 -2
19 -12 24 -13 71 -1 90 12 18 35 -62 27 -93 -5 -21 -5 -21 9 -2 21 28 18 85
-5 124 -11 17 -22 32 -25 32 -2 0 -11 -13 -20 -30z"/>
<path d="M10773 10340 c-48 -29 -83 -89 -93 -157 -4 -32 -6 -60 -5 -61 2 -2
11 10 19 27 16 31 48 46 83 39 13 -2 4 -12 -35 -38 -58 -37 -57 -48 1 -28 57
21 175 126 211 188 l19 33 -34 -7 c-19 -3 -56 -17 -82 -30 l-48 -24 6 39 c8
44 3 47 -42 19z m-8 -77 c-23 -55 -74 -90 -60 -40 8 24 53 77 67 77 5 0 1 -17
-7 -37z m109 -4 c-37 -39 -58 -51 -79 -43 -21 8 -4 29 44 54 55 29 69 25 35
-11z"/>
<path d="M10291 10314 c-14 -18 -22 -43 -23 -78 -4 -101 -1 -117 26 -144 14
-15 26 -22 26 -15 0 6 -7 16 -15 23 -9 7 -15 29 -15 54 l0 41 20 -30 c11 -16
20 -43 20 -59 0 -23 3 -26 14 -17 11 9 15 9 19 -1 3 -7 6 10 6 38 1 27 8 59
16 70 13 18 14 15 15 -29 0 -27 -5 -57 -10 -68 -16 -29 5 -23 26 9 21 32 24
106 5 141 l-13 24 -24 -29 c-13 -16 -27 -39 -30 -52 -6 -21 -7 -22 -19 -5 -11
15 -11 21 1 34 10 11 14 33 12 65 -4 58 -25 69 -57 28z m19 -94 c-6 -11 -15
-20 -20 -20 -16 0 -11 54 8 80 l17 25 3 -32 c2 -18 -2 -41 -8 -53z"/>
<path d="M8297 10251 c-21 -36 -22 -101 -2 -127 14 -18 15 -16 9 18 -8 47 3
95 18 80 5 -5 8 -35 6 -67 -3 -55 -3 -56 15 -34 21 26 22 90 2 129 -19 37 -26
37 -48 1z"/>
<path d="M9290 10169 c0 -20 41 -84 65 -102 13 -9 39 -20 57 -23 l33 -5 -39
20 c-40 21 -65 47 -66 69 0 18 35 -1 79 -42 33 -30 33 -30 26 -6 -11 36 -34
60 -80 81 -46 21 -75 24 -75 8z"/>
<path d="M10961 10104 c-23 -29 -27 -60 -11 -84 8 -12 10 -9 10 12 0 34 9 58
22 58 6 0 8 -18 6 -40 -4 -45 9 -48 31 -8 12 21 12 30 2 57 -16 38 -33 39 -60
5z"/>
<path d="M11080 10063 c-19 -18 -32 -41 -35 -63 l-5 -35 15 32 c14 30 54 67
63 58 9 -9 -21 -66 -42 -80 -20 -15 -20 -15 -1 -15 11 0 28 7 37 14 19 14 48
75 48 101 0 25 -47 18 -80 -12z"/>
<path d="M11243 10035 c0 -27 2 -38 4 -22 2 15 2 37 0 50 -2 12 -4 0 -4 -28z"/>
<path d="M7500 9961 c0 -19 53 -72 91 -91 21 -11 51 -20 66 -20 23 1 19 5 -26
23 -30 12 -61 33 -70 46 -15 23 -15 23 9 17 14 -4 46 -21 73 -36 l47 -29 -15
28 c-8 16 -34 38 -58 50 -44 21 -117 29 -117 12z"/>
<path d="M9732 9745 c-7 -14 -12 -38 -12 -53 0 -32 31 -94 51 -101 10 -3 9 3
-4 22 -10 15 -17 44 -16 69 l1 43 19 -40 c10 -22 19 -50 19 -63 0 -13 4 -20
10 -17 27 17 4 110 -37 148 -19 16 -20 16 -31 -8z"/>
<path d="M9430 9505 c0 -55 19 -102 54 -134 33 -31 34 -20 1 23 -16 21 -25 46
-25 67 l0 34 20 -25 c11 -14 25 -43 32 -65 6 -22 17 -47 25 -55 11 -12 13 -7
13 35 0 28 7 59 15 69 14 18 15 16 15 -28 0 -26 -5 -56 -10 -67 -15 -28 6 -25
24 4 22 35 27 75 16 118 -13 46 -26 46 -56 1 l-22 -32 -16 25 c-18 28 -67 75
-78 75 -5 0 -8 -20 -8 -45z"/>
<path d="M6970 9498 c0 -28 42 -80 75 -94 51 -21 77 -16 28 6 -38 17 -72 55
-60 67 8 7 48 -16 80 -45 31 -29 34 -24 12 18 -9 16 -29 36 -45 45 -35 18 -90
20 -90 3z"/>
<path d="M8203 9472 c-8 -5 -7 -13 5 -27 32 -39 65 -55 112 -54 l45 1 -38 9
c-47 11 -77 26 -77 39 0 14 35 12 75 -4 41 -18 46 -6 9 23 -27 21 -106 29
-131 13z"/>
<path d="M10827 9336 c-60 -27 -117 -105 -103 -141 8 -21 27 -19 66 8 38 25
65 66 75 115 7 35 4 37 -38 18z m-20 -73 c-17 -32 -64 -79 -72 -71 -11 11 27
75 53 91 34 20 37 16 19 -20z"/>
<path d="M11203 9308 c-33 -34 -53 -75 -53 -109 0 -29 16 -14 24 21 5 30 52
87 62 77 8 -8 -25 -80 -48 -104 -25 -26 -13 -30 20 -7 21 14 22 14 22 -11 0
-15 4 -24 10 -20 12 7 14 185 2 185 -4 0 -22 -15 -39 -32z"/>
<path d="M7070 9290 c29 -41 89 -70 142 -69 l43 1 -46 10 c-25 5 -59 20 -75
33 l-29 24 26 1 c14 0 48 -11 74 -25 27 -13 50 -23 52 -22 1 2 -4 12 -12 24
-22 32 -78 53 -140 53 l-56 0 21 -30z"/>
<path d="M7215 9161 c20 -39 59 -69 101 -77 50 -9 54 3 5 16 -35 9 -78 46 -66
58 8 8 69 -18 92 -40 18 -16 23 -18 23 -6 0 35 -71 78 -130 78 l-41 0 16 -29z"/>
<path d="M11156 8740 c28 -10 61 -23 73 -29 17 -9 21 -9 21 3 0 16 -80 46
-119 45 -20 0 -13 -5 25 -19z"/>
<path d="M11110 8731 c0 -15 79 -79 111 -90 25 -9 29 -8 29 9 0 11 -12 22 -32
29 -18 7 -50 23 -70 36 -21 14 -38 21 -38 16z"/>
<path d="M7587 8691 c-12 -33 -16 -34 -81 -14 -17 5 -18 1 -12 -28 8 -42 49
-85 95 -100 20 -7 47 -19 61 -28 22 -14 21 -11 -7 22 -26 30 -33 47 -33 80 l0
42 25 -44 c14 -23 25 -47 25 -52 0 -5 9 -18 20 -29 25 -25 49 -27 27 -2 -10
10 -17 32 -17 48 l1 29 19 -24 c11 -13 20 -32 20 -43 0 -10 5 -16 10 -13 36
22 -17 113 -59 102 -14 -3 -22 2 -31 23 -7 16 -21 36 -31 46 -19 17 -20 16
-32 -15z m0 -102 c10 -26 10 -28 -7 -19 -19 10 -50 48 -50 62 0 19 47 -17 57
-43z"/>
<path d="M7802 8695 c6 -30 8 -29 -37 -8 -19 9 -37 15 -39 12 -3 -3 0 -24 6
-47 11 -45 74 -112 105 -112 12 0 5 9 -19 25 -31 21 -69 85 -50 85 14 -1 53
-36 72 -65 11 -17 20 -24 20 -17 0 10 5 10 20 2 28 -15 25 -7 -10 28 -29 29
-41 72 -20 72 12 0 60 -71 60 -90 0 -12 2 -13 9 -1 20 31 -18 100 -71 127 -40
20 -51 18 -46 -11z"/>
<path d="M10864 8685 c-17 -13 -14 -14 31 -9 35 4 56 1 69 -9 19 -14 19 -15
-10 -21 -16 -3 -44 -2 -63 4 -47 13 -50 5 -10 -19 40 -25 67 -26 115 -6 42 17
40 31 -6 57 -42 22 -99 23 -126 3z"/>
<path d="M10440 8547 c0 -3 15 -14 34 -25 19 -11 42 -35 51 -52 l17 -32 -42
23 c-24 13 -47 34 -53 47 -6 12 -14 22 -18 22 -10 0 1 -40 19 -67 8 -12 38
-34 67 -48 32 -15 56 -34 60 -46 4 -12 22 -38 40 -58 31 -34 33 -40 25 -77
-12 -49 -12 -115 -1 -132 6 -10 13 -7 29 15 19 25 21 26 22 8 0 -11 7 -31 14
-44 l13 -23 20 28 c11 16 24 39 28 52 13 44 30 16 36 -59 6 -71 24 -129 40
-129 18 0 41 103 37 163 l-4 62 31 -32 c29 -29 98 -54 112 -40 3 3 -5 26 -17
51 -22 46 -72 86 -106 86 -13 -1 -7 -7 18 -21 32 -16 81 -79 63 -79 -18 0 -67
34 -89 62 -24 31 -25 31 -20 8 5 -20 3 -22 -5 -10 -8 11 -10 1 -5 -42 8 -65
-2 -132 -17 -122 -6 4 -9 44 -8 101 3 93 2 96 -25 119 -45 39 -55 32 -53 -34
1 -40 -4 -65 -16 -82 l-17 -24 0 41 c0 23 5 54 11 70 6 15 11 43 11 61 0 32 1
33 23 18 30 -20 95 -32 95 -17 0 37 -127 188 -182 217 -15 8 -40 14 -55 13
l-28 -1 33 -11 c34 -11 82 -49 82 -66 0 -14 -44 5 -87 36 -18 13 -33 20 -33
14 0 -20 52 -70 85 -81 34 -11 45 -32 24 -45 -6 -4 -18 3 -26 15 -8 12 -40 37
-69 56 -30 19 -54 39 -54 44 0 12 -59 56 -87 65 -13 3 -23 4 -23 2z m199 -162
c29 -34 41 -65 23 -65 -14 0 -79 75 -85 97 -4 19 -2 21 13 13 9 -5 31 -25 49
-45z m148 -12 c14 -24 23 -47 20 -50 -13 -12 -77 65 -77 92 0 24 2 26 16 15 8
-8 27 -33 41 -57z m-67 -81 c-9 -52 -32 -106 -48 -116 -12 -7 4 91 24 142 22
58 37 41 24 -26z m93 -96 c-12 -22 -28 -5 -38 39 l-7 30 27 -26 c21 -20 25
-31 18 -43z"/>
<path d="M11155 8465 c6 -2 22 -6 37 -9 15 -3 34 -13 42 -22 13 -12 16 -12 16
-2 0 25 -23 38 -64 37 -23 0 -36 -2 -31 -4z"/>
<path d="M11140 8441 c0 -14 48 -61 64 -61 8 0 21 -3 30 -6 12 -4 16 0 16 15
0 15 -6 21 -22 21 -13 0 -38 9 -55 20 -18 11 -33 16 -33 11z"/>
<path d="M11170 8360 c0 -5 9 -10 19 -10 20 0 51 -25 51 -41 0 -16 -26 -10
-54 12 -19 15 -26 17 -26 7 0 -24 24 -48 56 -57 l32 -9 0 43 c1 40 -1 44 -30
54 -38 14 -48 14 -48 1z"/>
<path d="M7260 8341 l-34 -19 34 -21 c41 -25 122 -28 160 -6 24 14 23 14 -22
8 -56 -7 -106 3 -91 18 6 6 38 9 72 7 66 -3 76 2 36 20 -38 18 -115 14 -155
-7z"/>
<path d="M7876 8308 c-12 -19 -23 -24 -44 -20 -34 5 -79 -29 -98 -74 -8 -19
-14 -38 -14 -43 0 -16 61 -2 93 20 l27 20 0 -40 c0 -50 16 -94 31 -85 6 3 22
30 35 58 25 53 32 138 14 166 -7 11 -10 -2 -10 -43 0 -52 -20 -117 -37 -117
-9 0 5 128 17 151 16 30 5 35 -14 7z m-26 -41 c0 -28 -70 -80 -86 -64 -7 7 61
77 75 77 6 0 11 -6 11 -13z"/>
<path d="M7446 8249 c-38 -44 -34 -59 15 -59 47 0 74 12 89 41 16 28 -4 49
-45 49 -25 0 -40 -8 -59 -31z m84 -14 c-23 -24 -70 -35 -70 -16 0 16 43 41 69
41 l24 0 -23 -25z"/>
<path d="M11205 8220 c28 -12 45 -12 45 0 0 6 -15 10 -32 9 -28 0 -30 -2 -13
-9z"/>
<path d="M11185 8191 c11 -18 30 -40 43 -49 20 -13 22 -13 22 7 0 11 -4 21 -9
21 -5 0 -24 12 -42 28 l-33 27 19 -34z"/>
<path d="M142 6373 c-7 -3 -19 -18 -27 -33 -13 -25 -15 -174 -15 -1095 0
-1133 -1 -1111 45 -1129 9 -3 83 -6 165 -6 131 0 151 2 171 19 l24 19 3 451 3
451 170 0 c202 0 244 -8 292 -58 19 -21 137 -217 262 -437 125 -220 236 -410
248 -422 20 -22 27 -23 202 -23 201 0 212 3 221 60 4 32 -20 78 -246 469 -249
431 -327 556 -375 601 -14 13 -25 27 -25 32 0 4 22 40 48 80 27 40 158 264
290 499 315 553 313 529 39 529 -158 0 -167 -1 -191 -22 -14 -13 -120 -192
-237 -398 -116 -206 -225 -394 -241 -417 -49 -72 -68 -78 -275 -81 l-182 -4
-3 442 -3 442 -24 19 c-21 17 -40 19 -175 18 -83 0 -157 -3 -164 -6z"/>
<path d="M2515 6356 c-24 -25 -25 -28 -25 -179 0 -137 2 -157 19 -178 l19 -24
660 -5 c647 -5 661 -5 688 -26 56 -41 69 -85 69 -229 0 -149 -14 -192 -74
-232 l-34 -23 -632 0 c-652 0 -685 -2 -705 -40 -6 -12 -10 -254 -10 -640 l0
-621 25 -24 c23 -24 28 -25 178 -25 147 0 154 1 175 23 22 23 22 27 24 468 l3
444 290 2 290 3 260 -461 c142 -253 267 -465 276 -470 10 -5 99 -9 198 -9 150
0 182 3 195 16 23 22 30 62 17 90 -6 14 -115 202 -241 418 -126 217 -232 400
-235 408 -4 10 14 18 64 31 172 45 277 167 327 382 29 122 26 429 -5 540 -56
205 -139 304 -308 362 -43 15 -125 18 -766 20 l-717 4 -25 -25z"/>
<path d="M5035 6355 l-25 -24 0 -1086 0 -1086 25 -24 c23 -24 28 -25 178 -25
152 0 154 0 178 26 l24 26 0 1083 0 1083 -24 26 c-24 26 -26 26 -178 26 -150
0 -155 -1 -178 -25z"/>
<path d="M6320 6369 c-112 -22 -203 -97 -260 -213 -58 -118 -65 -167 -65 -426
0 -264 13 -354 67 -471 37 -81 84 -129 163 -166 l60 -28 501 -5 c475 -5 503
-6 523 -24 33 -30 41 -79 41 -253 0 -173 -12 -233 -51 -253 -11 -6 -254 -10
-632 -10 -606 0 -615 0 -641 -21 l-26 -20 0 -164 0 -164 26 -20 c26 -21 34
-21 685 -21 443 0 675 4 711 11 64 13 156 60 191 97 46 48 94 140 118 225 23
77 24 98 23 342 -1 235 -3 268 -22 340 -29 103 -57 160 -107 214 -50 54 -96
84 -166 107 -48 16 -109 18 -529 22 -535 4 -501 -1 -519 83 -14 65 -14 274 0
339 18 85 -24 80 641 80 l587 0 28 24 c27 24 28 27 31 142 4 141 -3 199 -29
225 -18 18 -40 19 -661 18 -354 -1 -663 -5 -688 -10z"/>
<path d="M10812 6373 c-7 -3 -19 -18 -27 -33 -13 -25 -15 -174 -15 -1095 0
-1133 -1 -1111 45 -1129 27 -10 305 -7 325 4 10 5 23 24 29 41 8 23 11 342 11
1084 0 742 -3 1061 -11 1084 -6 17 -19 36 -29 41 -19 10 -304 13 -328 3z"/>
<path d="M5437 2562 c-10 -10 -17 -30 -17 -43 0 -14 176 -459 391 -990 215
-530 402 -992 416 -1026 32 -81 91 -146 167 -186 55 -28 70 -31 151 -32 82 0
95 3 151 32 72 38 123 91 164 173 58 115 810 1998 810 2028 0 58 -13 62 -206
62 -101 0 -183 -4 -195 -10 -10 -6 -25 -23 -34 -39 -10 -21 -591 -1479 -677
-1701 -8 -20 -11 -22 -18 -10 -4 8 -162 398 -350 865 -188 468 -351 860 -363
873 -20 21 -27 22 -197 22 -159 0 -179 -2 -193 -18z"/>
<path d="M9280 2564 c-74 -25 -149 -83 -187 -145 -19 -31 -214 -502 -434
-1048 -400 -994 -419 -1047 -387 -1079 19 -19 367 -17 395 3 13 9 50 88 103
225 l83 210 309 0 c367 0 378 3 378 91 0 37 -96 278 -121 304 -18 18 -36 20
-208 25 l-189 5 177 447 c97 246 180 447 185 445 4 -2 163 -389 352 -861 196
-491 353 -869 365 -882 22 -23 26 -24 199 -24 163 0 178 2 195 20 12 13 16 30
13 52 -7 55 -817 2038 -852 2088 -80 113 -245 168 -376 124z"/>
<path d="M3153 2550 c-37 -15 -43 -42 -43 -204 0 -143 2 -158 20 -176 20 -20
33 -20 843 -20 l824 0 19 21 c17 18 19 40 22 174 3 150 3 153 -21 181 l-25 29
-809 2 c-454 1 -818 -2 -830 -7z"/>
<path d="M1091 2539 c-147 -29 -255 -144 -302 -325 -39 -151 -36 -518 6 -679
38 -144 107 -234 213 -277 56 -23 62 -23 542 -25 267 -2 495 -5 508 -8 15 -4
30 -20 42 -48 17 -36 20 -66 20 -213 0 -179 -8 -226 -42 -257 -19 -16 -64 -17
-638 -17 -609 0 -618 0 -644 -21 l-26 -20 0 -159 c0 -140 2 -160 19 -181 l19
-24 649 -3 c428 -2 670 1 713 8 138 23 233 93 291 215 58 123 64 165 64 450
-1 213 -4 272 -18 329 -36 144 -113 258 -206 305 -91 47 -137 51 -614 51 -268
0 -456 4 -466 10 -37 19 -46 67 -46 245 0 143 3 175 18 203 10 17 19 33 20 34
1 1 273 5 604 8 l602 5 23 23 c21 21 23 33 26 149 4 145 -1 186 -29 214 -18
18 -38 19 -661 18 -354 -1 -663 -5 -687 -10z"/>
<path d="M3250 1609 c-58 -26 -87 -53 -116 -111 -23 -46 -24 -53 -24 -295 0
-336 21 -473 95 -628 68 -140 196 -234 375 -272 76 -16 142 -18 648 -18 l564
0 24 28 c24 28 24 32 24 217 0 185 0 189 -24 217 l-24 28 -564 5 c-396 4 -571
8 -589 17 -93 41 -139 166 -124 339 l7 84 613 0 c382 0 624 4 640 10 41 16 55
64 55 192 0 126 -12 183 -40 198 -12 6 -278 10 -757 10 -721 0 -739 -1 -783
-21z"/>
</g>
</svg>
