<?xml version="1.0" encoding="UTF-8" standalone="no"?><!DOCTYPE svg PUBLIC "-//W3C//DTD SVG 1.1//EN" "http://www.w3.org/Graphics/SVG/1.1/DTD/svg11.dtd"><svg width="100%" height="100%" viewBox="0 0 155 155" version="1.1" xmlns="http://www.w3.org/2000/svg" xmlns:xlink="http://www.w3.org/1999/xlink" xml:space="preserve" xmlns:serif="http://www.serif.com/" style="fill-rule:evenodd;clip-rule:evenodd;stroke-linejoin:round;stroke-miterlimit:2;"><path d="M154.396,77.2c-0,42.633 -34.563,77.2 -77.2,77.2c-42.634,-0 -77.196,-34.567 -77.196,-77.2c-0,-42.633 34.562,-77.2 77.196,-77.2c42.637,-0 77.2,34.567 77.2,77.2" style="fill:#fff;fill-rule:nonzero;"/><path d="M89.222,52.117c-7.087,-0 -12.833,5.666 -12.833,12.658c0,0.992 0.117,1.963 0.333,2.888c-10.666,-0.53 -20.129,-5.567 -26.462,-13.234c-1.092,1.871 -1.742,4.046 -1.742,6.367c0,4.4 2.271,8.275 5.721,10.546c-2.108,-0.067 -4.083,-0.638 -5.812,-1.584l-0.013,0.159c0,6.133 4.438,11.254 10.308,12.416c-1.079,0.292 -2.208,0.446 -3.391,0.446c-0.825,0 -1.629,-0.079 -2.404,-0.225c1.625,5.034 6.366,8.696 11.987,8.796c-4.396,3.396 -9.925,5.417 -15.954,5.417c-1.021,-0 -2.05,-0.054 -3.042,-0.171c5.675,3.596 12.421,5.687 19.671,5.687c23.604,0 36.513,-19.295 36.513,-36.033l-0.034,-1.642c2.517,-1.787 4.688,-4.02 6.409,-6.554c-2.296,1.004 -4.771,1.679 -7.375,1.988c2.654,-1.567 4.687,-4.046 5.645,-7.009c-2.483,1.455 -5.233,2.513 -8.154,3.075c-2.346,-2.454 -5.683,-3.991 -9.371,-3.991" style="fill:#333;fill-rule:nonzero;"/></svg>